<svg width="442" height="348" viewBox="0 0 442 348" fill="none" xmlns="http://www.w3.org/2000/svg">
<rect x="0.979943" y="0.991845" width="439.79" height="345.496" fill="#D5D5D5" stroke="black" stroke-width="1.50871"/>
<path d="M11.3559 274V90.1924H128.084L122.538 127.957H65.7587V168.099H115.672V205.864H65.7587V274H11.3559ZM184.854 132.975V274H132.564V132.975H184.854ZM158.709 55.0683C167.16 55.0683 174.114 57.7972 179.572 63.2551C185.206 68.5369 188.023 75.1392 188.023 83.0619C188.023 90.9847 185.206 97.675 179.572 103.133C174.114 108.415 167.16 111.056 158.709 111.056C150.258 111.056 143.215 108.415 137.581 103.133C132.123 97.675 129.394 90.9847 129.394 83.0619C129.394 75.1392 132.123 68.5369 137.581 63.2551C143.215 57.7972 150.258 55.0683 158.709 55.0683ZM292.663 128.486C297.24 128.486 301.994 129.278 306.924 130.862L298.737 181.304C293.983 179.895 289.67 179.191 285.796 179.191C278.05 179.191 272.24 181.744 268.366 186.85C264.669 191.956 261.676 199.614 259.387 209.826V274H207.097V132.975H252.785L257.01 159.384C260.003 150.053 264.757 142.571 271.271 136.937C277.786 131.303 284.916 128.486 292.663 128.486ZM428.142 228.312C428.142 233.242 428.758 236.939 429.99 239.404C431.223 241.693 433.423 243.453 436.593 244.686L426.029 278.225C416.522 277.521 408.775 275.761 402.789 272.944C396.803 269.951 391.873 265.197 388 258.683C378.845 272.415 364.672 279.282 345.481 279.282C331.572 279.282 320.304 275.144 311.677 266.87C303.226 258.419 299.001 247.591 299.001 234.386C299.001 218.717 304.811 206.745 316.431 198.47C328.051 190.195 344.953 186.058 367.136 186.058H377.172V182.624C377.172 175.582 375.763 170.828 372.947 168.363C370.13 165.899 364.76 164.666 356.837 164.666C352.611 164.666 347.154 165.37 340.463 166.779C333.949 168.011 327.259 169.772 320.392 172.061L309.036 138.785C317.663 135.264 326.995 132.535 337.03 130.598C347.242 128.662 356.485 127.693 364.76 127.693C386.943 127.693 403.053 132.007 413.088 140.634C423.124 149.085 428.142 162.113 428.142 179.719V228.312ZM361.591 242.573C364.76 242.573 367.665 241.781 370.306 240.196C373.123 238.612 375.411 236.587 377.172 234.122V213.259H371.626C364.231 213.259 358.774 214.579 355.252 217.22C351.731 219.861 349.971 223.911 349.971 229.369C349.971 233.418 351.027 236.675 353.14 239.14C355.252 241.429 358.069 242.573 361.591 242.573Z" fill="black"/>
<circle cx="391.887" cy="17.9649" r="8.67511" stroke="black" stroke-width="1.50871"/>
<circle cx="422.818" cy="17.9649" r="8.67511" stroke="black" stroke-width="1.50871"/>
<line x1="418.401" y1="22.633" x2="427.485" y2="13.5493" stroke="black" stroke-width="0.754357"/>
<line x1="418.935" y1="13.5494" x2="428.018" y2="22.6331" stroke="black" stroke-width="0.754357"/>
<line x1="386.23" y1="17.965" x2="397.546" y2="17.965" stroke="black" stroke-width="0.754357"/>
<line y1="36.0695" x2="441.299" y2="36.0695" stroke="black" stroke-width="0.754357"/>
</svg>
