<svg width="443" height="348" viewBox="0 0 443 348" fill="none" xmlns="http://www.w3.org/2000/svg">
<rect x="1.20651" y="0.979272" width="439.79" height="345.496" fill="#D5D5D5" stroke="black" stroke-width="1.50871"/>
<path d="M15.2424 265.329V81.786H128.009L122.992 116.382H64.0993V160.485H115.861V195.081H64.0993V265.329H15.2424ZM182.936 124.569V265.329H135.928V124.569H182.936ZM159.432 48.7746C167.355 48.7746 173.781 51.2394 178.711 56.1691C183.817 61.0988 186.369 67.2609 186.369 74.6555C186.369 82.0501 183.817 88.2122 178.711 93.1419C173.781 98.0716 167.355 100.536 159.432 100.536C151.509 100.536 144.995 98.0716 139.889 93.1419C134.96 88.2122 132.495 82.0501 132.495 74.6555C132.495 67.2609 134.96 61.0988 139.889 56.1691C144.995 51.2394 151.509 48.7746 159.432 48.7746ZM291.274 120.343C295.851 120.343 300.605 121.136 305.534 122.72L297.876 168.144C293.298 166.735 289.073 166.031 285.199 166.031C277.277 166.031 271.203 168.76 266.977 174.218C262.928 179.5 259.759 187.599 257.47 198.514V265.329H210.462V124.569H251.396L255.621 151.242C258.438 141.911 263.104 134.428 269.618 128.794C276.308 123.16 283.527 120.343 291.274 120.343ZM424.935 222.018C424.935 227.124 425.551 230.91 426.783 233.374C428.192 235.839 430.569 237.688 433.914 238.92L424.407 269.291C415.427 268.587 408.033 266.738 402.223 263.745C396.589 260.752 392.011 255.998 388.49 249.484C379.511 263.217 365.338 270.083 345.971 270.083C332.063 270.083 320.883 266.034 312.432 257.935C304.157 249.66 300.019 239.008 300.019 225.98C300.019 210.486 305.741 198.602 317.185 190.328C328.629 182.053 345.179 177.915 366.835 177.915H378.983V173.162C378.983 165.591 377.398 160.485 374.229 157.844C371.06 155.027 365.338 153.619 357.063 153.619C352.662 153.619 347.116 154.323 340.425 155.732C333.911 156.964 327.221 158.725 320.355 161.013L310.055 130.643C318.506 127.122 327.573 124.481 337.256 122.72C346.94 120.783 355.919 119.815 364.194 119.815C385.321 119.815 400.726 124.041 410.41 132.492C420.093 140.766 424.935 153.531 424.935 170.785V222.018ZM360.232 237.072C364.106 237.072 367.627 236.103 370.796 234.167C374.141 232.054 376.87 229.237 378.983 225.716V203.004H371.06C362.609 203.004 356.359 204.588 352.31 207.758C348.26 210.751 346.235 215.328 346.235 221.49C346.235 226.244 347.468 230.029 349.933 232.846C352.398 235.663 355.831 237.072 360.232 237.072Z" fill="black"/>
<circle cx="392.342" cy="19.2154" r="8.67511" stroke="black" stroke-width="1.50871"/>
<circle cx="423.271" cy="19.2154" r="8.67511" stroke="black" stroke-width="1.50871"/>
<line x1="418.852" y1="23.8834" x2="427.936" y2="14.7997" stroke="black" stroke-width="0.754357"/>
<line x1="419.386" y1="14.7998" x2="428.47" y2="23.8835" stroke="black" stroke-width="0.754357"/>
<line x1="0.453125" y1="37.32" x2="441.752" y2="37.32" stroke="black" stroke-width="0.754357"/>
<line x1="386.686" y1="19.2154" x2="398.001" y2="19.2154" stroke="black" stroke-width="0.754357"/>
</svg>
