<svg width="443" height="348" viewBox="0 0 443 348" fill="none" xmlns="http://www.w3.org/2000/svg">
<rect x="1.88424" y="0.754357" width="439.79" height="345.496" fill="#D5D5D5" stroke="black" stroke-width="1.50871"/>
<path d="M18.0702 265.105V82.0893H127.14L122.65 112.988H61.3812V161.581H114.728V192.479H61.3812V265.105H18.0702ZM179.96 124.872V265.105H138.234V124.872H179.96ZM158.833 50.9265C166.051 50.9265 171.95 53.2153 176.527 57.7928C181.281 62.1944 183.658 67.8283 183.658 74.6947C183.658 81.5611 181.281 87.283 176.527 91.8606C171.95 96.2621 166.051 98.4629 158.833 98.4629C151.614 98.4629 145.716 96.2621 141.139 91.8606C136.561 87.283 134.272 81.5611 134.272 74.6947C134.272 67.8283 136.561 62.1944 141.139 57.7928C145.716 53.2153 151.614 50.9265 158.833 50.9265ZM288.826 120.911C293.932 120.911 298.597 121.527 302.823 122.759L296.22 163.165C290.938 161.933 286.713 161.317 283.544 161.317C275.269 161.317 268.931 164.222 264.529 170.032C260.304 175.666 256.959 184.205 254.494 195.649V265.105H212.767V124.872H249.212L252.645 152.073C255.814 142.39 260.568 134.819 266.906 129.362C273.42 123.728 280.727 120.911 288.826 120.911ZM420.927 224.434C420.927 229.716 421.631 233.59 423.04 236.055C424.624 238.519 427.089 240.368 430.434 241.6L421.719 268.802C413.092 268.098 406.05 266.249 400.592 263.256C395.134 260.087 390.909 255.157 387.916 248.467C378.761 262.552 364.676 269.594 345.661 269.594C331.752 269.594 320.66 265.545 312.386 257.446C304.111 249.347 299.973 238.783 299.973 225.755C299.973 210.438 305.607 198.73 316.875 190.631C328.143 182.532 344.429 178.483 365.732 178.483H379.993V172.408C379.993 164.134 378.232 158.5 374.711 155.507C371.19 152.338 365.028 150.753 356.225 150.753C351.647 150.753 346.101 151.457 339.587 152.866C333.073 154.098 326.382 155.859 319.516 158.148L310.009 130.682C318.812 127.337 327.791 124.784 336.946 123.023C346.277 121.263 354.904 120.382 362.827 120.382C382.898 120.382 397.599 124.52 406.93 132.795C416.262 141.07 420.927 153.482 420.927 170.032V224.434ZM357.809 239.752C367.317 239.752 374.711 235.262 379.993 226.283V201.459H369.693C360.186 201.459 353.056 203.131 348.302 206.476C343.724 209.821 341.436 215.015 341.436 222.058C341.436 227.692 342.844 232.093 345.661 235.262C348.654 238.255 352.704 239.752 357.809 239.752Z" fill="black"/>
<circle cx="393.017" cy="19.2361" r="8.67511" stroke="black" stroke-width="1.50871"/>
<circle cx="423.947" cy="19.2361" r="8.67511" stroke="black" stroke-width="1.50871"/>
<line x1="419.53" y1="23.9041" x2="428.614" y2="14.8204" stroke="black" stroke-width="0.754357"/>
<line x1="420.064" y1="14.8206" x2="429.147" y2="23.9042" stroke="black" stroke-width="0.754357"/>
<line x1="1.12988" y1="37.3407" x2="442.429" y2="37.3407" stroke="black" stroke-width="0.754357"/>
<line x1="387.361" y1="19.2361" x2="398.677" y2="19.2361" stroke="black" stroke-width="0.754357"/>
</svg>
