<svg width="448" height="348" viewBox="0 0 448 348" fill="none" xmlns="http://www.w3.org/2000/svg">
<rect x="1.74069" y="0.979272" width="439.79" height="345.496" fill="#D5D5D5" stroke="black" stroke-width="1.50871"/>
<path d="M25.3216 265.329V82.5783H131.486L127.261 110.836H64.1431V162.598H119.074V190.856H64.1431V265.329H25.3216ZM182.986 125.361V265.329H145.485V125.361H182.986ZM163.972 53.2641C170.662 53.2641 176.12 55.3768 180.345 59.6023C184.747 63.6517 186.948 68.8455 186.948 75.1837C186.948 81.5219 184.747 86.8037 180.345 91.0292C176.12 95.0786 170.662 97.1033 163.972 97.1033C157.281 97.1033 151.823 95.0786 147.598 91.0292C143.373 86.8037 141.26 81.5219 141.26 75.1837C141.26 68.8455 143.373 63.6517 147.598 59.6023C151.823 55.3768 157.281 53.2641 163.972 53.2641ZM292.38 121.4C296.605 121.4 301.271 122.104 306.377 123.512L300.039 159.693C295.109 158.461 290.971 157.844 287.626 157.844C279.351 157.844 272.925 160.749 268.348 166.559C263.77 172.369 260.161 181.172 257.52 192.968V265.329H220.019V125.361H252.502L255.935 152.562C259.28 142.703 264.122 135.044 270.46 129.587C276.975 124.129 284.281 121.4 292.38 121.4ZM422.657 226.508C422.657 231.966 423.45 236.015 425.034 238.656C426.619 241.121 429.26 242.97 432.957 244.202L425.034 269.027C416.759 268.323 409.981 266.386 404.699 263.217C399.593 260.048 395.632 255.118 392.815 248.428C383.66 262.512 369.663 269.555 350.825 269.555C336.916 269.555 325.824 265.594 317.549 257.671C309.45 249.572 305.401 239.096 305.401 226.244C305.401 210.927 310.947 199.219 322.039 191.12C333.13 183.021 349.064 178.972 369.839 178.972H385.949V172.105C385.949 163.478 384.012 157.492 380.139 154.147C376.265 150.802 369.839 149.129 360.86 149.129C351.001 149.129 338.676 151.594 323.887 156.524L315.436 131.435C332.866 124.569 350.12 121.136 367.198 121.136C386.213 121.136 400.21 125.273 409.189 133.548C418.168 141.647 422.657 153.795 422.657 169.992V226.508ZM361.124 242.618C371.688 242.618 379.963 237.424 385.949 227.036V200.363H373.536C353.289 200.363 343.166 207.934 343.166 223.075C343.166 229.237 344.662 234.079 347.655 237.6C350.825 240.945 355.314 242.618 361.124 242.618Z" fill="black"/>
<circle cx="392.877" cy="20.2154" r="8.67511" stroke="black" stroke-width="1.50871"/>
<circle cx="423.804" cy="20.2154" r="8.67511" stroke="black" stroke-width="1.50871"/>
<line x1="419.388" y1="24.8834" x2="428.471" y2="15.7997" stroke="black" stroke-width="0.754357"/>
<line x1="419.921" y1="15.7998" x2="429.005" y2="24.8834" stroke="black" stroke-width="0.754357"/>
<line x1="0.988281" y1="38.32" x2="442.287" y2="38.32" stroke="black" stroke-width="0.754357"/>
<line x1="387.221" y1="20.2154" x2="398.536" y2="20.2154" stroke="black" stroke-width="0.754357"/>
</svg>
