<svg width="449" height="348" viewBox="0 0 449 348" fill="none" xmlns="http://www.w3.org/2000/svg">
<rect x="1.12154" y="1.51968" width="439.79" height="345.496" fill="#D5D5D5" stroke="black" stroke-width="1.50871"/>
<path d="M28.3211 265.87V83.3827H131.581L127.884 109.264H63.1811V163.931H119.433V189.812H63.1811V265.87H28.3211ZM181.766 126.166V265.87H147.963V126.166H181.766ZM164.6 55.3891C170.939 55.3891 176.044 57.4138 179.918 61.4632C183.967 65.3365 185.992 70.1782 185.992 75.9882C185.992 81.7982 183.967 86.6399 179.918 90.5132C176.044 94.3866 170.939 96.3232 164.6 96.3232C158.438 96.3232 153.333 94.3866 149.283 90.5132C145.41 86.6399 143.473 81.7982 143.473 75.9882C143.473 70.1782 145.41 65.3365 149.283 61.4632C153.333 57.4138 158.438 55.3891 164.6 55.3891ZM291.424 122.468C296.53 122.468 301.196 123.084 305.421 124.317L299.611 157.064C295.386 156.008 291.248 155.48 287.199 155.48C278.924 155.48 272.41 158.473 267.656 164.459C262.902 170.269 259.117 179.248 256.3 191.396V265.87H222.496V126.166H251.81L254.98 153.631C258.325 143.596 263.166 135.937 269.505 130.655C275.843 125.197 283.149 122.468 291.424 122.468ZM420.406 228.897C420.406 234.355 421.198 238.404 422.783 241.045C424.543 243.51 427.272 245.447 430.97 246.855L423.839 269.303C415.916 268.599 409.402 266.662 404.296 263.493C399.367 260.324 395.581 255.482 392.94 248.968C388.187 256.01 382.201 261.292 374.982 264.814C367.94 268.159 360.017 269.831 351.214 269.831C337.305 269.831 326.301 265.87 318.203 257.947C310.104 250.024 306.054 239.637 306.054 226.784C306.054 211.643 311.512 200.111 322.428 192.188C333.52 184.09 349.277 180.04 369.7 180.04H387.13V172.117C387.13 163.138 385.018 156.888 380.792 153.367C376.743 149.67 370.141 147.821 360.985 147.821C350.774 147.821 338.45 150.286 324.013 155.216L316.09 132.24C333.52 125.549 350.422 122.204 366.795 122.204C402.536 122.204 420.406 138.226 420.406 170.269V228.897ZM360.193 245.271C371.637 245.271 380.616 239.549 387.13 228.105V199.847H373.134C351.302 199.847 340.386 207.946 340.386 224.143C340.386 230.834 342.059 236.028 345.404 239.725C348.749 243.422 353.679 245.271 360.193 245.271Z" fill="black"/>
<circle cx="392.258" cy="20.7558" r="8.67511" stroke="black" stroke-width="1.50871"/>
<circle cx="423.189" cy="20.7558" r="8.67511" stroke="black" stroke-width="1.50871"/>
<line x1="418.768" y1="25.4238" x2="427.852" y2="16.3401" stroke="black" stroke-width="0.754357"/>
<line x1="419.302" y1="16.3401" x2="428.386" y2="25.4238" stroke="black" stroke-width="0.754357"/>
<line x1="0.369141" y1="38.8604" x2="441.668" y2="38.8604" stroke="black" stroke-width="0.754357"/>
<line x1="386.598" y1="20.7558" x2="397.913" y2="20.7558" stroke="black" stroke-width="0.754357"/>
</svg>
