<svg width="455" height="348" viewBox="0 0 455 348" fill="none" xmlns="http://www.w3.org/2000/svg">
<rect x="0.818811" y="1.48147" width="439.79" height="345.496" fill="#D5D5D5" stroke="black" stroke-width="1.50871"/>
<path d="M39.8291 265.832V83.8728H136.486L133.581 103.944H64.9177V166.005H124.338V185.812H64.9177V265.832H39.8291ZM183.245 126.656V265.832H158.949V126.656H183.245ZM170.833 59.8405C175.939 59.8405 180.076 61.425 183.245 64.5941C186.414 67.7632 187.999 71.7246 187.999 76.4782C187.999 81.2319 186.414 85.1932 183.245 88.3623C180.076 91.3554 175.939 92.8519 170.833 92.8519C165.903 92.8519 161.854 91.3554 158.685 88.3623C155.516 85.1932 153.931 81.2319 153.931 76.4782C153.931 71.7246 155.516 67.7632 158.685 64.5941C161.854 61.425 165.903 59.8405 170.833 59.8405ZM293.959 123.486C298.889 123.486 303.467 124.015 307.692 125.071L303.202 148.839C298.977 147.783 294.928 147.255 291.054 147.255C282.427 147.255 275.473 150.424 270.191 156.762C264.909 163.1 260.772 172.96 257.779 186.34V265.832H233.482V126.656H254.346L256.722 154.913C260.42 144.526 265.437 136.691 271.776 131.409C278.114 126.127 285.508 123.486 293.959 123.486ZM419.821 233.348C419.821 238.982 420.79 243.208 422.726 246.025C424.663 248.666 427.568 250.69 431.441 252.099L425.896 269.001C418.677 268.121 412.867 266.096 408.465 262.927C404.064 259.758 400.807 254.828 398.694 248.138C389.363 262.046 375.542 269.001 357.232 269.001C343.499 269.001 332.671 265.127 324.749 257.381C316.826 249.634 312.864 239.511 312.864 227.01C312.864 212.221 318.146 200.865 328.71 192.943C339.45 185.02 354.591 181.058 374.134 181.058H395.525V170.759C395.525 160.899 393.148 153.857 388.395 149.632C383.641 145.406 376.334 143.293 366.475 143.293C356.263 143.293 343.763 145.758 328.974 150.688L322.9 132.994C340.154 126.656 356.175 123.486 370.965 123.486C387.338 123.486 399.574 127.536 407.673 135.635C415.772 143.557 419.821 154.913 419.821 169.702V233.348ZM362.778 250.779C376.687 250.779 387.602 243.56 395.525 229.123V197.168H377.303C351.598 197.168 338.745 206.675 338.745 225.69C338.745 233.965 340.77 240.215 344.819 244.44C348.869 248.666 354.855 250.779 362.778 250.779Z" fill="black"/>
<circle cx="391.953" cy="19.2089" r="8.67511" stroke="black" stroke-width="1.50871"/>
<circle cx="422.885" cy="19.2089" r="8.67511" stroke="black" stroke-width="1.50871"/>
<line x1="418.466" y1="23.8768" x2="427.549" y2="14.7932" stroke="black" stroke-width="0.754357"/>
<line x1="418.999" y1="14.7932" x2="428.083" y2="23.8769" stroke="black" stroke-width="0.754357"/>
<line x1="0.0644531" y1="37.3135" x2="441.364" y2="37.3135" stroke="black" stroke-width="0.754357"/>
<line x1="386.293" y1="19.2089" x2="397.608" y2="19.2089" stroke="black" stroke-width="0.754357"/>
</svg>
