<svg width="464" height="348" viewBox="0 0 464 348" fill="none" xmlns="http://www.w3.org/2000/svg">
<rect x="1.46529" y="1.63509" width="439.79" height="345.496" fill="#D5D5D5" stroke="black" stroke-width="1.50871"/>
<path d="M51.6755 265.985V85.0826H141.995L140.146 98.2872H67.5209V168.8H130.111V182.004H67.5209V265.985H51.6755ZM183.533 127.865V265.985H168.216V127.865H183.533ZM175.611 67.1244C179.132 67.1244 181.949 68.1808 184.062 70.2935C186.174 72.4063 187.231 75.0472 187.231 78.2163C187.231 81.3854 186.174 84.0263 184.062 86.139C181.949 88.2517 179.132 89.3081 175.611 89.3081C172.265 89.3081 169.537 88.2517 167.424 86.139C165.311 84.0263 164.255 81.3854 164.255 78.2163C164.255 75.0472 165.311 72.4063 167.424 70.2935C169.537 68.1808 172.265 67.1244 175.611 67.1244ZM293.008 124.96C298.465 124.96 303.043 125.489 306.74 126.545L303.835 141.07C299.962 140.014 295.913 139.485 291.687 139.485C282.356 139.485 274.785 142.919 268.975 149.785C263.341 156.475 258.588 167.039 254.714 181.476V265.985H239.397V127.865H252.602L253.922 158.764C257.619 147.32 262.637 138.869 268.975 133.411C275.489 127.777 283.5 124.96 293.008 124.96ZM414.461 235.351C414.461 242.569 415.341 247.763 417.102 250.932C419.038 254.101 422.031 256.478 426.081 258.062L422.647 268.89C416.309 267.658 411.38 265.281 407.858 261.76C404.513 258.239 402.312 252.869 401.256 245.65C391.749 261.144 377.4 268.89 358.209 268.89C345.005 268.89 334.529 265.193 326.782 257.798C319.212 250.228 315.426 240.192 315.426 227.692C315.426 213.431 320.444 202.427 330.48 194.681C340.691 186.934 354.776 183.061 372.734 183.061H399.143V169.592C399.143 158.5 396.678 150.489 391.749 145.56C386.819 140.454 378.632 137.901 367.188 137.901C356.625 137.901 344.124 140.542 329.687 145.824L325.726 134.204C341.219 128.042 355.744 124.96 369.301 124.96C399.407 124.96 414.461 139.573 414.461 168.8V235.351ZM360.85 256.478C377.4 256.478 390.164 248.379 399.143 232.182V194.152H375.111C361.026 194.152 350.286 196.881 342.892 202.339C335.497 207.797 331.8 215.984 331.8 226.9C331.8 236.407 334.353 243.714 339.459 248.819C344.564 253.925 351.695 256.478 360.85 256.478Z" fill="black"/>
<circle cx="392.599" cy="22.1169" r="8.67511" stroke="black" stroke-width="1.50871"/>
<circle cx="423.531" cy="22.1169" r="8.67511" stroke="black" stroke-width="1.50871"/>
<line x1="419.112" y1="26.7849" x2="428.196" y2="17.7012" stroke="black" stroke-width="0.754357"/>
<line x1="419.646" y1="17.7013" x2="428.729" y2="26.785" stroke="black" stroke-width="0.754357"/>
<line x1="0.710938" y1="40.2215" x2="442.01" y2="40.2215" stroke="black" stroke-width="0.754357"/>
<line x1="386.941" y1="22.1169" x2="398.257" y2="22.1169" stroke="black" stroke-width="0.754357"/>
</svg>
