<svg width="473" height="348" viewBox="0 0 473 348" fill="none" xmlns="http://www.w3.org/2000/svg">
<rect x="0.988732" y="1.41946" width="439.79" height="345.496" fill="#D5D5D5" stroke="black" stroke-width="1.50871"/>
<path d="M61.308 265.77V85.1312H149.25L147.666 95.959H73.7203V169.64H137.63V180.204H73.7203V265.77H61.308ZM188.707 127.914V265.77H176.559V127.914H188.707ZM182.633 69.2858C185.45 69.2858 187.739 70.1661 189.5 71.9267C191.26 73.6873 192.141 75.888 192.141 78.5289C192.141 81.1699 191.26 83.3706 189.5 85.1312C187.739 86.8918 185.45 87.7721 182.633 87.7721C179.816 87.7721 177.527 86.8918 175.767 85.1312C174.006 83.3706 173.126 81.1699 173.126 78.5289C173.126 75.888 174.006 73.6873 175.767 71.9267C177.527 70.1661 179.816 69.2858 182.633 69.2858ZM297.678 125.273C303.664 125.273 308.242 125.801 311.411 126.858L309.034 138.214C305.513 137.157 301.463 136.629 296.886 136.629C287.202 136.629 279.368 140.15 273.382 147.193C267.572 154.059 262.73 164.887 258.857 179.676V265.77H246.708V127.914H257.272L258.064 159.869C261.762 148.073 266.779 139.358 273.118 133.724C279.632 128.09 287.819 125.273 297.678 125.273ZM418.1 235.927C418.1 243.674 418.98 249.22 420.74 252.565C422.677 255.91 425.67 258.375 429.72 259.96L426.815 268.675C420.828 267.09 416.251 264.449 413.082 260.752C410.089 257.055 408.24 251.597 407.536 244.378C397.5 260.576 382.975 268.675 363.961 268.675C350.932 268.675 340.633 264.977 333.062 257.583C325.492 250.012 321.706 239.977 321.706 227.476C321.706 213.392 326.724 202.564 336.759 194.993C346.795 187.247 360.44 183.373 377.694 183.373H405.951V168.848C405.951 157.404 403.398 149.041 398.293 143.76C393.187 138.478 384.736 135.837 372.94 135.837C361.848 135.837 349.348 138.566 335.439 144.024L332.006 134.252C347.323 128.266 361.32 125.273 373.996 125.273C389.138 125.273 400.229 128.882 407.272 136.101C414.49 143.319 418.1 153.971 418.1 168.056V235.927ZM365.545 258.375C383.328 258.375 396.796 249.66 405.951 232.23V192.88H379.542C365.105 192.88 354.013 195.786 346.267 201.596C338.52 207.229 334.647 215.768 334.647 227.212C334.647 237.072 337.376 244.73 342.834 250.188C348.291 255.646 355.862 258.375 365.545 258.375Z" fill="black"/>
<circle cx="392.123" cy="25.1817" r="8.67511" stroke="black" stroke-width="1.50871"/>
<circle cx="423.054" cy="25.1817" r="8.67511" stroke="black" stroke-width="1.50871"/>
<line x1="418.636" y1="29.8497" x2="427.719" y2="20.766" stroke="black" stroke-width="0.754357"/>
<line x1="419.169" y1="20.7661" x2="428.253" y2="29.8497" stroke="black" stroke-width="0.754357"/>
<line x1="0.234375" y1="43.2863" x2="441.533" y2="43.2863" stroke="black" stroke-width="0.754357"/>
<line x1="386.465" y1="25.1817" x2="397.78" y2="25.1817" stroke="black" stroke-width="0.754357"/>
</svg>
