<svg width="460" height="348" viewBox="0 0 460 348" fill="none" xmlns="http://www.w3.org/2000/svg">
<rect x="1.01608" y="0.754357" width="439.79" height="345.496" fill="#D5D5D5" stroke="black" stroke-width="1.50871"/>
<path d="M52.3582 265.104V85.2583H135.811L135.019 90.8042H58.4323V171.088H124.455V176.634H58.4323V265.104H52.3582ZM171.872 128.041V265.104H166.062V128.041H171.872ZM168.967 73.9024C170.728 73.9024 172.048 74.4305 172.928 75.4869C173.985 76.5433 174.513 77.7757 174.513 79.1842C174.513 80.5927 173.985 81.8251 172.928 82.8815C172.048 83.7618 170.728 84.2019 168.967 84.2019C167.382 84.2019 166.062 83.7618 165.006 82.8815C164.125 81.8251 163.685 80.5927 163.685 79.1842C163.685 77.7757 164.125 76.5433 165.006 75.4869C166.062 74.4305 167.382 73.9024 168.967 73.9024ZM280.628 125.4C285.382 125.4 289.871 125.928 294.097 126.985L292.776 132.002C288.903 131.122 284.854 130.682 280.628 130.682C270.593 130.682 262.406 134.203 256.068 141.246C249.729 148.112 244.36 159.116 239.958 174.257V265.104H234.148V128.041H239.166L239.43 162.109C243.303 149.432 248.497 140.189 255.011 134.379C261.702 128.393 270.24 125.4 280.628 125.4ZM397.66 236.054C397.66 245.034 398.54 251.46 400.301 255.333C402.237 259.206 405.494 261.935 410.072 263.52L408.487 267.745C403.03 265.985 399.068 263.168 396.603 259.294C394.138 255.245 392.818 249.171 392.642 241.072C382.607 258.854 367.729 267.745 348.011 267.745C335.158 267.745 325.035 264.048 317.64 256.654C310.422 249.259 306.812 239.4 306.812 227.075C306.812 213.343 311.654 202.691 321.337 195.12C331.021 187.55 344.137 183.764 360.687 183.764H391.85V167.391C391.85 155.066 389.121 145.911 383.663 139.925C378.381 133.763 369.402 130.682 356.726 130.682C345.634 130.682 333.045 133.587 318.96 139.397L317.112 134.379C331.549 128.393 344.753 125.4 356.726 125.4C370.986 125.4 381.374 128.921 387.888 135.964C394.403 142.83 397.66 153.13 397.66 166.863V236.054ZM348.011 262.199C358.398 262.199 367.113 259.823 374.156 255.069C381.198 250.139 387.096 243.009 391.85 233.678V189.046H361.743C346.426 189.046 334.454 192.303 325.827 198.818C317.376 205.332 313.15 214.751 313.15 227.075C313.15 237.991 316.232 246.618 322.394 252.956C328.732 259.118 337.271 262.199 348.011 262.199Z" fill="black"/>
<circle cx="391.888" cy="23.3162" r="8.67511" stroke="black" stroke-width="1.50871"/>
<circle cx="422.82" cy="23.3162" r="8.67511" stroke="black" stroke-width="1.50871"/>
<line x1="418.401" y1="27.9842" x2="427.485" y2="18.9006" stroke="black" stroke-width="0.754357"/>
<line x1="418.935" y1="18.9005" x2="428.018" y2="27.9842" stroke="black" stroke-width="0.754357"/>
<path d="M1.5 41.4209L441.299 41.4209" stroke="black" stroke-width="0.754357"/>
<line x1="386.23" y1="23.3162" x2="397.546" y2="23.3162" stroke="black" stroke-width="0.754357"/>
</svg>
