<svg width="602" height="976" viewBox="0 0 602 976" fill="none" xmlns="http://www.w3.org/2000/svg">
<rect y="0.680176" width="602" height="818.64" fill="#FF6D1D"/>
<path d="M342.631 301.955C361.354 301.955 376.006 307.789 386.589 319.457C397.443 330.853 402.87 347.134 402.87 368.299V615.358L338.561 608.438V378.067C338.561 367.485 336.797 360.023 333.27 355.681C329.742 351.34 324.722 349.169 318.21 349.169C311.427 349.169 305.05 351.34 299.08 355.681C293.111 360.023 287.277 366.535 281.579 375.218V525H217.27V369.52C217.27 349.169 214.285 329.768 208.316 311.316L267.74 303.176C271.81 311.316 275.066 321.627 277.509 334.109C295.689 312.673 317.396 301.955 342.631 301.955ZM303.151 180.257L365.831 192.875L329.607 286.081L287.684 279.162L303.151 180.257Z" fill="black"/>
<path d="M493.865 780.478C494.951 780.478 495.807 780.803 496.431 781.455C497.065 782.107 497.382 783.053 497.382 784.293C497.382 785.515 497.047 786.484 496.377 787.199C495.716 787.914 494.779 788.272 493.566 788.272C493.059 788.272 492.598 788.199 492.181 788.054C491.774 787.919 491.38 787.715 491 787.443L492.113 785.95C492.367 786.104 492.593 786.212 492.792 786.276C493.001 786.339 493.218 786.371 493.444 786.371C494.195 786.371 494.612 785.922 494.693 785.026H492.317V783.614H494.68C494.644 783.171 494.535 782.854 494.354 782.664C494.173 782.474 493.933 782.379 493.634 782.379C493.39 782.379 493.159 782.415 492.942 782.487C492.734 782.551 492.512 782.659 492.276 782.813L491.163 781.374C491.905 780.776 492.806 780.478 493.865 780.478ZM495.011 776.377L496.016 778.332L492.608 779.676L491.888 778.332L495.011 776.377ZM503.993 780.749L503.654 782.691H501.916V788H499.227V782.691H497.272V780.749H503.993ZM510.162 785.651C510.162 785.904 510.194 786.094 510.257 786.221C510.321 786.339 510.434 786.429 510.597 786.493L510.054 788.217C509.565 788.181 509.166 788.091 508.859 787.946C508.551 787.792 508.297 787.547 508.098 787.212C507.628 787.919 506.899 788.272 505.912 788.272C505.197 788.272 504.618 788.059 504.174 787.633C503.74 787.199 503.522 786.642 503.522 785.963C503.522 785.158 503.821 784.542 504.419 784.117C505.016 783.691 505.885 783.478 507.026 783.478H507.542V783.302C507.542 782.94 507.469 782.695 507.324 782.569C507.18 782.442 506.903 782.379 506.496 782.379C506.279 782.379 505.998 782.415 505.654 782.487C505.319 782.551 504.975 782.641 504.622 782.759L504.038 781.048C504.482 780.867 504.962 780.726 505.478 780.627C506.003 780.527 506.478 780.478 506.903 780.478C508.044 780.478 508.872 780.699 509.388 781.143C509.904 781.577 510.162 782.247 510.162 783.152V785.651ZM506.74 786.384C506.903 786.384 507.053 786.343 507.189 786.262C507.333 786.18 507.451 786.076 507.542 785.95V784.877H507.256C506.876 784.877 506.596 784.945 506.415 785.081C506.234 785.216 506.143 785.425 506.143 785.705C506.143 785.913 506.197 786.081 506.306 786.208C506.415 786.325 506.559 786.384 506.74 786.384ZM512.427 785.474C512.825 785.474 513.156 785.61 513.418 785.882C513.69 786.144 513.825 786.475 513.825 786.873C513.825 787.09 513.785 787.317 513.703 787.552C513.631 787.778 513.491 788.127 513.282 788.597L512.44 790.498H511.055L511.653 788.014C511.454 787.887 511.3 787.724 511.191 787.525C511.083 787.326 511.028 787.104 511.028 786.859C511.028 786.461 511.16 786.131 511.422 785.868C511.694 785.606 512.029 785.474 512.427 785.474ZM519.827 788H518.089V780.817H522.895L522.692 782.175H519.827V788ZM527.657 780.613C528.562 780.613 529.232 780.944 529.666 781.605C530.101 782.265 530.318 783.193 530.318 784.388C530.318 785.13 530.205 785.791 529.979 786.371C529.761 786.941 529.436 787.389 529.001 787.715C528.576 788.041 528.069 788.204 527.48 788.204C526.72 788.204 526.118 787.941 525.674 787.416V790.77L523.936 790.96V780.817H525.457L525.552 781.7C525.833 781.338 526.154 781.066 526.516 780.885C526.878 780.704 527.258 780.613 527.657 780.613ZM526.991 786.873C527.996 786.873 528.499 786.049 528.499 784.402C528.499 783.524 528.385 782.89 528.159 782.501C527.933 782.111 527.593 781.917 527.141 781.917C526.851 781.917 526.58 782.007 526.326 782.188C526.073 782.36 525.855 782.596 525.674 782.895V786.126C526.009 786.624 526.448 786.873 526.991 786.873ZM537.918 784.239C537.918 784.329 537.904 784.565 537.877 784.945H533.369C533.424 785.642 533.605 786.14 533.912 786.438C534.22 786.737 534.628 786.887 535.134 786.887C535.451 786.887 535.75 786.837 536.031 786.737C536.311 786.629 536.61 786.466 536.927 786.248L537.646 787.24C536.85 787.882 535.963 788.204 534.985 788.204C533.89 788.204 533.043 787.869 532.446 787.199C531.858 786.529 531.563 785.615 531.563 784.456C531.563 783.723 531.69 783.067 531.944 782.487C532.197 781.899 532.564 781.442 533.043 781.116C533.523 780.781 534.093 780.613 534.754 780.613C535.759 780.613 536.538 780.935 537.09 781.577C537.642 782.211 537.918 783.098 537.918 784.239ZM536.194 783.736C536.194 782.478 535.727 781.849 534.795 781.849C534.37 781.849 534.035 782.007 533.79 782.324C533.555 782.632 533.415 783.13 533.369 783.818H536.194V783.736ZM544.868 780.817V788H543.13V785.176C542.867 785.402 542.55 785.579 542.179 785.705C541.817 785.832 541.442 785.895 541.052 785.895C540.364 785.895 539.848 785.705 539.504 785.325C539.16 784.945 538.988 784.411 538.988 783.723V780.817H540.726V783.506C540.726 783.895 540.799 784.175 540.944 784.347C541.098 784.51 541.333 784.592 541.65 784.592C541.912 784.592 542.179 784.537 542.451 784.429C542.732 784.311 542.958 784.166 543.13 783.994V780.817H544.868ZM547.526 786.004C547.834 786.004 548.097 786.113 548.314 786.33C548.531 786.538 548.64 786.796 548.64 787.104C548.64 787.403 548.531 787.661 548.314 787.878C548.097 788.095 547.834 788.204 547.526 788.204C547.228 788.204 546.97 788.095 546.752 787.878C546.544 787.661 546.44 787.403 546.44 787.104C546.44 786.796 546.544 786.538 546.752 786.33C546.961 786.113 547.219 786.004 547.526 786.004ZM557.496 780.613C558.139 780.613 558.637 780.808 558.99 781.197C559.352 781.586 559.533 782.134 559.533 782.84V790.96L557.795 790.77V783.071C557.795 782.655 557.718 782.36 557.564 782.188C557.419 782.007 557.202 781.917 556.912 781.917C556.613 781.917 556.346 782.007 556.111 782.188C555.876 782.369 555.645 782.632 555.419 782.976V788H553.68V782.962C553.68 782.229 553.576 781.528 553.368 780.858L554.957 780.64C555.111 780.93 555.228 781.306 555.31 781.767C555.88 780.998 556.609 780.613 557.496 780.613ZM555.921 776.825L557.659 776.961L557.102 779.907H555.948L555.921 776.825ZM564.424 782.148V785.8C564.424 786.135 564.464 786.38 564.546 786.534C564.636 786.687 564.795 786.819 565.021 786.927L564.505 788.204C563.862 788.077 563.396 787.846 563.107 787.511C562.826 787.176 562.686 786.683 562.686 786.031V782.148H561.898C561.554 782.157 561.305 782.17 561.151 782.188C560.997 782.207 560.812 782.247 560.595 782.311L560.282 781.075C560.536 780.975 560.78 780.908 561.015 780.871C561.251 780.835 561.577 780.817 561.993 780.817H566.746V782.148H564.424ZM569.873 780.613C570.479 780.613 570.959 780.776 571.312 781.102C571.674 781.428 571.919 781.944 572.045 782.65L572.331 780.817H573.851L572.996 784.537L573.349 786.14C573.403 786.348 573.485 786.506 573.593 786.615C573.702 786.724 573.856 786.805 574.055 786.859L573.485 788.204C573.105 788.158 572.788 788.027 572.534 787.81C572.281 787.593 572.118 787.298 572.045 786.927L571.937 786.316C571.71 786.923 571.416 787.389 571.054 787.715C570.701 788.041 570.249 788.204 569.696 788.204C568.854 788.204 568.194 787.887 567.714 787.253C567.243 786.61 567.008 785.683 567.008 784.47C567.008 783.718 567.116 783.053 567.334 782.474C567.56 781.885 567.89 781.428 568.325 781.102C568.759 780.776 569.275 780.613 569.873 780.613ZM570.063 781.917C569.665 781.917 569.352 782.134 569.126 782.569C568.909 782.994 568.8 783.628 568.8 784.47C568.8 786.09 569.203 786.9 570.009 786.9C570.362 786.9 570.669 786.715 570.932 786.343C571.204 785.972 571.43 785.302 571.611 784.334C571.448 783.429 571.249 782.799 571.013 782.446C570.778 782.093 570.461 781.917 570.063 781.917Z" fill="black"/>
<rect y="820" width="602" height="156" fill="black"/>
<path d="M51.4952 905.16C51.4952 907.633 51.1799 909.549 50.5495 910.907C49.919 912.265 48.755 913.428 47.0576 914.398H70.3368L69.5365 920H38.9099V914.689C40.6073 914.059 41.8683 913.404 42.6928 912.725C43.5172 911.998 44.075 911.076 44.3659 909.961C44.7054 908.797 44.8752 907.172 44.8752 905.087V896.575H40.0739V892.211H44.8752V884.136C44.8752 880.11 46.0876 876.861 48.5125 874.387C50.9375 871.865 54.3081 870.605 58.6244 870.605C61.2918 870.605 63.6925 871.114 65.8264 872.132C67.9603 873.102 69.9003 874.606 71.6462 876.643L67.2814 879.989C66.1174 878.631 64.8807 877.637 63.5712 877.006C62.2618 876.376 60.7099 876.061 58.9154 876.061C56.539 876.061 54.6961 876.764 53.3866 878.17C52.1257 879.528 51.4952 881.492 51.4952 884.063V892.211H66.6266V896.575H51.4952V905.16Z" fill="#D5D5D5"/>
<path d="M365.495 905.16C365.495 907.633 365.18 909.549 364.549 910.907C363.919 912.265 362.755 913.428 361.058 914.398H384.337L383.537 920H352.91V914.689C354.607 914.059 355.868 913.404 356.693 912.725C357.517 911.998 358.075 911.076 358.366 909.961C358.705 908.797 358.875 907.172 358.875 905.087V896.575H354.074V892.211H358.875V884.136C358.875 880.11 360.088 876.861 362.513 874.387C364.937 871.865 368.308 870.605 372.624 870.605C375.292 870.605 377.692 871.114 379.826 872.132C381.96 873.102 383.9 874.606 385.646 876.643L381.281 879.989C380.117 878.631 378.881 877.637 377.571 877.006C376.262 876.376 374.71 876.061 372.915 876.061C370.539 876.061 368.696 876.764 367.387 878.17C366.126 879.528 365.495 881.492 365.495 884.063V892.211H380.627V896.575H365.495V905.16Z" fill="#D5D5D5"/>
<path d="M139.835 881.808C139.835 886.172 137.531 888.719 132.924 889.446C134.476 892.647 135.252 896.43 135.252 900.795C135.252 904.772 134.573 908.288 133.215 911.343C131.857 914.35 129.893 916.702 127.322 918.4C124.752 920.048 121.697 920.873 118.156 920.873C112.773 920.873 108.578 919.079 105.571 915.49C102.564 911.901 101.061 907.027 101.061 900.867C101.061 896.891 101.74 893.399 103.098 890.392C104.456 887.336 106.42 884.984 108.99 883.335C111.561 881.638 114.64 880.789 118.229 880.789C123.321 880.789 127.347 882.414 130.305 885.663C131.663 885.469 132.657 885.106 133.288 884.572C133.918 883.99 134.233 883.19 134.233 882.171C134.233 881.056 134.136 880.134 133.942 879.407C133.797 878.631 133.554 877.807 133.215 876.934L138.453 875.842C139.374 877.443 139.835 879.431 139.835 881.808ZM118.156 915.49C124.752 915.49 128.05 910.591 128.05 900.795C128.05 891.047 124.776 886.172 118.229 886.172C111.585 886.172 108.263 891.071 108.263 900.867C108.263 910.616 111.561 915.49 118.156 915.49Z" fill="#D5D5D5"/>
<path d="M453.835 881.808C453.835 886.172 451.531 888.719 446.924 889.446C448.476 892.647 449.252 896.43 449.252 900.795C449.252 904.772 448.573 908.288 447.215 911.343C445.857 914.35 443.893 916.702 441.322 918.4C438.752 920.048 435.697 920.873 432.156 920.873C426.773 920.873 422.578 919.079 419.571 915.49C416.564 911.901 415.061 907.027 415.061 900.867C415.061 896.891 415.74 893.399 417.098 890.392C418.456 887.336 420.42 884.984 422.99 883.335C425.561 881.638 428.64 880.789 432.229 880.789C437.321 880.789 441.347 882.414 444.305 885.663C445.663 885.469 446.657 885.106 447.288 884.572C447.918 883.99 448.233 883.19 448.233 882.171C448.233 881.056 448.136 880.134 447.942 879.407C447.797 878.631 447.554 877.807 447.215 876.934L452.453 875.842C453.374 877.443 453.835 879.431 453.835 881.808ZM432.156 915.49C438.752 915.49 442.05 910.591 442.05 900.795C442.05 891.047 438.776 886.172 432.229 886.172C425.585 886.172 422.263 891.071 422.263 900.867C422.263 910.616 425.561 915.49 432.156 915.49Z" fill="#D5D5D5"/>
<path d="M193.547 906.469C193.547 910.155 192.383 913.259 190.055 915.781C187.727 918.303 184.502 919.903 180.38 920.582V931.276H174.56V920.8C168.595 920.509 163.624 918.424 159.647 914.544L163.575 910.252C167.067 913.647 171.238 915.344 176.088 915.344C179.143 915.344 181.641 914.592 183.581 913.089C185.569 911.586 186.563 909.452 186.563 906.687C186.563 905.087 186.248 903.753 185.618 902.686C185.036 901.619 183.993 900.673 182.489 899.849C180.986 899.025 178.828 898.176 176.015 897.303C171.02 895.751 167.358 893.932 165.03 891.847C162.751 889.713 161.611 886.851 161.611 883.263C161.611 879.868 162.799 877.031 165.176 874.751C167.552 872.472 170.68 871.114 174.56 870.677V860.056H180.38V870.75C182.708 870.993 184.793 871.575 186.636 872.496C188.528 873.369 190.322 874.606 192.019 876.206L188.164 880.425C186.515 878.873 184.793 877.758 182.999 877.079C181.253 876.4 179.337 876.061 177.252 876.061C174.681 876.061 172.572 876.667 170.923 877.879C169.322 879.043 168.522 880.741 168.522 882.972C168.522 884.378 168.813 885.566 169.395 886.536C169.977 887.458 171.02 888.331 172.523 889.155C174.027 889.931 176.233 890.78 179.143 891.701C182.198 892.623 184.745 893.641 186.782 894.757C188.818 895.872 190.443 897.376 191.656 899.267C192.917 901.158 193.547 903.559 193.547 906.469Z" fill="#D5D5D5"/>
<path d="M507.547 906.469C507.547 910.155 506.383 913.259 504.055 915.781C501.727 918.303 498.502 919.903 494.38 920.582V931.276H488.56V920.8C482.595 920.509 477.624 918.424 473.647 914.544L477.575 910.252C481.067 913.647 485.238 915.344 490.088 915.344C493.143 915.344 495.641 914.592 497.581 913.089C499.569 911.586 500.563 909.452 500.563 906.687C500.563 905.087 500.248 903.753 499.618 902.686C499.036 901.619 497.993 900.673 496.489 899.849C494.986 899.025 492.828 898.176 490.015 897.303C485.02 895.751 481.358 893.932 479.03 891.847C476.751 889.713 475.611 886.851 475.611 883.263C475.611 879.868 476.799 877.031 479.176 874.751C481.552 872.472 484.68 871.114 488.56 870.677V860.056H494.38V870.75C496.708 870.993 498.793 871.575 500.636 872.496C502.528 873.369 504.322 874.606 506.019 876.206L502.164 880.425C500.515 878.873 498.793 877.758 496.999 877.079C495.253 876.4 493.337 876.061 491.252 876.061C488.681 876.061 486.572 876.667 484.923 877.879C483.322 879.043 482.522 880.741 482.522 882.972C482.522 884.378 482.813 885.566 483.395 886.536C483.977 887.458 485.02 888.331 486.523 889.155C488.027 889.931 490.233 890.78 493.143 891.701C496.198 892.623 498.745 893.641 500.782 894.757C502.818 895.872 504.443 897.376 505.656 899.267C506.917 901.158 507.547 903.559 507.547 906.469Z" fill="#D5D5D5"/>
<path d="M244.133 880.789C247.625 880.789 250.341 881.856 252.281 883.99C254.269 886.075 255.263 889.01 255.263 892.792V935.495L248.571 934.695V893.447C248.571 890.731 248.061 888.816 247.043 887.7C246.024 886.585 244.521 886.027 242.533 886.027C240.496 886.027 238.701 886.609 237.149 887.773C235.597 888.937 234.142 890.61 232.784 892.792V920H226.092V894.029C226.092 891.459 225.922 889.228 225.582 887.336C225.243 885.445 224.782 883.554 224.2 881.662L230.311 880.789C231.184 882.632 231.839 884.887 232.275 887.555C233.633 885.421 235.306 883.772 237.295 882.608C239.332 881.395 241.611 880.789 244.133 880.789ZM240.496 860.929L247.479 862.239L242.533 876.715L237.804 875.915L240.496 860.929Z" fill="#D5D5D5"/>
<path d="M558.133 880.789C561.625 880.789 564.341 881.856 566.281 883.99C568.269 886.075 569.263 889.01 569.263 892.792V935.495L562.571 934.695V893.447C562.571 890.731 562.061 888.816 561.043 887.7C560.024 886.585 558.521 886.027 556.533 886.027C554.496 886.027 552.701 886.609 551.149 887.773C549.597 888.937 548.142 890.61 546.784 892.792V920H540.092V894.029C540.092 891.459 539.922 889.228 539.582 887.336C539.243 885.445 538.782 883.554 538.2 881.662L544.311 880.789C545.184 882.632 545.839 884.887 546.275 887.555C547.633 885.421 549.306 883.772 551.295 882.608C553.332 881.395 555.611 880.789 558.133 880.789ZM554.496 860.929L561.479 862.239L556.533 876.715L551.804 875.915L554.496 860.929Z" fill="#D5D5D5"/>
<path d="M328.544 900.504C328.544 907.099 326.944 912.046 323.743 915.344C320.591 918.594 315.717 920.412 309.121 920.8V934.695L302.719 935.495V920.8C296.366 920.461 291.71 918.739 288.752 915.635C285.842 912.531 284.387 908.094 284.387 902.322C284.387 898.685 284.775 895.242 285.551 891.992C286.327 888.694 287.394 885.251 288.752 881.662H295.444C294.135 885.009 293.068 888.306 292.243 891.556C291.468 894.805 291.08 898.224 291.08 901.813C291.08 906.469 292.001 909.864 293.844 911.998C295.735 914.132 298.694 915.393 302.719 915.781V895.411C302.719 890.707 303.81 887.094 305.993 884.572C308.224 882.05 311.255 880.789 315.086 880.789C324.058 880.789 328.544 887.361 328.544 900.504ZM309.121 915.781C312.322 915.49 314.819 914.811 316.614 913.744C318.457 912.677 319.766 911.101 320.542 909.015C321.318 906.93 321.706 904.141 321.706 900.649C321.706 896.915 321.488 894.005 321.051 891.92C320.615 889.786 319.912 888.282 318.942 887.409C318.02 886.488 316.784 886.027 315.232 886.027C313.292 886.027 311.788 886.706 310.721 888.064C309.654 889.373 309.121 891.92 309.121 895.702V915.781Z" fill="#D5D5D5"/>
</svg>
