<svg width="602" height="156" viewBox="0 0 602 156" fill="none" xmlns="http://www.w3.org/2000/svg">
<rect width="602" height="156" fill="black"/>
<path d="M51.4952 85.1595C51.4952 87.6329 51.1799 89.5486 50.5495 90.9066C49.919 92.2645 48.755 93.4285 47.0576 94.3985H70.3368L69.5365 100H38.9099V94.6894C40.6073 94.059 41.8683 93.4042 42.6928 92.7253C43.5172 91.9978 44.075 91.0763 44.3659 89.9609C44.7054 88.7969 44.8752 87.1722 44.8752 85.0868V76.5754H40.0739V72.2105H44.8752V64.1356C44.8752 60.1102 46.0876 56.8608 48.5125 54.3874C50.9375 51.8655 54.3081 50.6045 58.6244 50.6045C61.2918 50.6045 63.6925 51.1138 65.8264 52.1322C67.9603 53.1022 69.9003 54.6057 71.6462 56.6426L67.2814 59.989C66.1174 58.631 64.8807 57.6368 63.5712 57.0063C62.2618 56.3758 60.7099 56.0606 58.9154 56.0606C56.539 56.0606 54.6961 56.7638 53.3866 58.1703C52.1257 59.5282 51.4952 61.4924 51.4952 64.0628V72.2105H66.6266V76.5754H51.4952V85.1595Z" fill="#D5D5D5"/>
<path d="M365.495 85.1595C365.495 87.6329 365.18 89.5486 364.549 90.9066C363.919 92.2645 362.755 93.4285 361.058 94.3985H384.337L383.537 100H352.91V94.6894C354.607 94.059 355.868 93.4042 356.693 92.7253C357.517 91.9978 358.075 91.0763 358.366 89.9609C358.705 88.7969 358.875 87.1722 358.875 85.0868V76.5754H354.074V72.2105H358.875V64.1356C358.875 60.1102 360.088 56.8608 362.513 54.3874C364.937 51.8655 368.308 50.6045 372.624 50.6045C375.292 50.6045 377.692 51.1138 379.826 52.1322C381.96 53.1022 383.9 54.6057 385.646 56.6426L381.281 59.989C380.117 58.631 378.881 57.6368 377.571 57.0063C376.262 56.3758 374.71 56.0606 372.915 56.0606C370.539 56.0606 368.696 56.7638 367.387 58.1703C366.126 59.5282 365.495 61.4924 365.495 64.0628V72.2105H380.627V76.5754H365.495V85.1595Z" fill="#D5D5D5"/>
<path d="M139.835 61.8076C139.835 66.1725 137.531 68.7186 132.924 69.4461C134.476 72.647 135.252 76.4299 135.252 80.7947C135.252 84.7716 134.573 88.2877 133.215 91.3431C131.857 94.35 129.893 96.7021 127.322 98.3996C124.752 100.048 121.697 100.873 118.156 100.873C112.773 100.873 108.578 99.0785 105.571 95.4897C102.564 91.9008 101.061 87.0267 101.061 80.8674C101.061 76.8906 101.74 73.3987 103.098 70.3918C104.456 67.3364 106.42 64.9843 108.99 63.3353C111.561 61.6379 114.64 60.7892 118.229 60.7892C123.321 60.7892 127.347 62.4139 130.305 65.6632C131.663 65.4693 132.657 65.1055 133.288 64.572C133.918 63.9901 134.233 63.1898 134.233 62.1714C134.233 61.0559 134.136 60.1344 133.942 59.407C133.797 58.631 133.554 57.8065 133.215 56.9336L138.453 55.8424C139.374 57.4428 139.835 59.4312 139.835 61.8076ZM118.156 95.4897C124.752 95.4897 128.05 90.5913 128.05 80.7947C128.05 71.0466 124.776 66.1725 118.229 66.1725C111.585 66.1725 108.263 71.0708 108.263 80.8674C108.263 90.6156 111.561 95.4897 118.156 95.4897Z" fill="#D5D5D5"/>
<path d="M453.835 61.8076C453.835 66.1725 451.531 68.7186 446.924 69.4461C448.476 72.647 449.252 76.4299 449.252 80.7947C449.252 84.7716 448.573 88.2877 447.215 91.3431C445.857 94.35 443.893 96.7021 441.322 98.3996C438.752 100.048 435.697 100.873 432.156 100.873C426.773 100.873 422.578 99.0785 419.571 95.4897C416.564 91.9008 415.061 87.0267 415.061 80.8674C415.061 76.8906 415.74 73.3987 417.098 70.3918C418.456 67.3364 420.42 64.9843 422.99 63.3353C425.561 61.6379 428.64 60.7892 432.229 60.7892C437.321 60.7892 441.347 62.4139 444.305 65.6632C445.663 65.4693 446.657 65.1055 447.288 64.572C447.918 63.9901 448.233 63.1898 448.233 62.1714C448.233 61.0559 448.136 60.1344 447.942 59.407C447.797 58.631 447.554 57.8065 447.215 56.9336L452.453 55.8424C453.374 57.4428 453.835 59.4312 453.835 61.8076ZM432.156 95.4897C438.752 95.4897 442.05 90.5913 442.05 80.7947C442.05 71.0466 438.776 66.1725 432.229 66.1725C425.585 66.1725 422.263 71.0708 422.263 80.8674C422.263 90.6156 425.561 95.4897 432.156 95.4897Z" fill="#D5D5D5"/>
<path d="M193.547 86.469C193.547 90.1549 192.383 93.2587 190.055 95.7807C187.727 98.3026 184.502 99.903 180.38 100.582V111.276H174.56V100.8C168.595 100.509 163.624 98.4238 159.647 94.5439L163.575 90.2519C167.067 93.6467 171.238 95.3442 176.088 95.3442C179.143 95.3442 181.641 94.5924 183.581 93.089C185.569 91.5856 186.563 89.4516 186.563 86.6872C186.563 85.0868 186.248 83.7531 185.618 82.6861C185.036 81.6192 183.993 80.6735 182.489 79.849C180.986 79.0245 178.828 78.1758 176.015 77.3028C171.02 75.7509 167.358 73.9322 165.03 71.8468C162.751 69.7129 161.611 66.8515 161.611 63.2626C161.611 59.8677 162.799 57.0306 165.176 54.7511C167.552 52.4717 170.68 51.1138 174.56 50.6773V40.0562H180.38V50.75C182.708 50.9925 184.793 51.5745 186.636 52.496C188.528 53.3689 190.322 54.6056 192.019 56.2061L188.164 60.4254C186.515 58.8735 184.793 57.758 182.999 57.0791C181.253 56.4001 179.337 56.0606 177.252 56.0606C174.681 56.0606 172.572 56.6668 170.923 57.8793C169.322 59.0432 168.522 60.7407 168.522 62.9716C168.522 64.378 168.813 65.5663 169.395 66.5362C169.977 67.4577 171.02 68.3307 172.523 69.1551C174.027 69.9311 176.233 70.7798 179.143 71.7013C182.198 72.6227 184.745 73.6412 186.782 74.7567C188.818 75.8721 190.443 77.3756 191.656 79.267C192.917 81.1584 193.547 83.5591 193.547 86.469Z" fill="#D5D5D5"/>
<path d="M507.547 86.469C507.547 90.1549 506.383 93.2587 504.055 95.7807C501.727 98.3026 498.502 99.903 494.38 100.582V111.276H488.56V100.8C482.595 100.509 477.624 98.4238 473.647 94.5439L477.575 90.2519C481.067 93.6467 485.238 95.3442 490.088 95.3442C493.143 95.3442 495.641 94.5924 497.581 93.089C499.569 91.5856 500.563 89.4516 500.563 86.6872C500.563 85.0868 500.248 83.7531 499.618 82.6861C499.036 81.6192 497.993 80.6735 496.489 79.849C494.986 79.0245 492.828 78.1758 490.015 77.3028C485.02 75.7509 481.358 73.9322 479.03 71.8468C476.751 69.7129 475.611 66.8515 475.611 63.2626C475.611 59.8677 476.799 57.0306 479.176 54.7511C481.552 52.4717 484.68 51.1138 488.56 50.6773V40.0562H494.38V50.75C496.708 50.9925 498.793 51.5745 500.636 52.496C502.528 53.3689 504.322 54.6056 506.019 56.2061L502.164 60.4254C500.515 58.8735 498.793 57.758 496.999 57.0791C495.253 56.4001 493.337 56.0606 491.252 56.0606C488.681 56.0606 486.572 56.6668 484.923 57.8793C483.322 59.0432 482.522 60.7407 482.522 62.9716C482.522 64.378 482.813 65.5663 483.395 66.5362C483.977 67.4577 485.02 68.3307 486.523 69.1551C488.027 69.9311 490.233 70.7798 493.143 71.7013C496.198 72.6227 498.745 73.6412 500.782 74.7567C502.818 75.8721 504.443 77.3756 505.656 79.267C506.917 81.1584 507.547 83.5591 507.547 86.469Z" fill="#D5D5D5"/>
<path d="M244.133 60.7892C247.625 60.7892 250.341 61.8561 252.281 63.9901C254.269 66.0755 255.263 69.0096 255.263 72.7925V115.495L248.571 114.695V73.4472C248.571 70.7313 248.061 68.8156 247.043 67.7002C246.024 66.5847 244.521 66.027 242.533 66.027C240.496 66.027 238.701 66.609 237.149 67.7729C235.597 68.9369 234.142 70.6101 232.784 72.7925V100H226.092V74.0292C226.092 71.4588 225.922 69.2279 225.582 67.3364C225.243 65.445 224.782 63.5536 224.2 61.6621L230.311 60.7892C231.184 62.6321 231.839 64.8873 232.275 67.5547C233.633 65.4208 235.306 63.7718 237.295 62.6079C239.332 61.3954 241.611 60.7892 244.133 60.7892ZM240.496 40.9291L247.479 42.2386L242.533 56.7153L237.804 55.9151L240.496 40.9291Z" fill="#D5D5D5"/>
<path d="M558.133 60.7892C561.625 60.7892 564.341 61.8561 566.281 63.9901C568.269 66.0755 569.263 69.0096 569.263 72.7925V115.495L562.571 114.695V73.4472C562.571 70.7313 562.061 68.8156 561.043 67.7002C560.024 66.5847 558.521 66.027 556.533 66.027C554.496 66.027 552.701 66.609 551.149 67.7729C549.597 68.9369 548.142 70.6101 546.784 72.7925V100H540.092V74.0292C540.092 71.4588 539.922 69.2279 539.582 67.3364C539.243 65.445 538.782 63.5536 538.2 61.6621L544.311 60.7892C545.184 62.6321 545.839 64.8873 546.275 67.5547C547.633 65.4208 549.306 63.7718 551.295 62.6079C553.332 61.3954 555.611 60.7892 558.133 60.7892ZM554.496 40.9291L561.479 42.2386L556.533 56.7153L551.804 55.9151L554.496 40.9291Z" fill="#D5D5D5"/>
<path d="M328.544 80.5037C328.544 87.0995 326.944 92.0463 323.743 95.3442C320.591 98.5936 315.717 100.412 309.121 100.8V114.695L302.719 115.495V100.8C296.366 100.461 291.71 98.739 288.752 95.6352C285.842 92.5313 284.387 88.0937 284.387 82.3224C284.387 78.685 284.775 75.2416 285.551 71.9923C286.327 68.6944 287.394 65.251 288.752 61.6621H295.444C294.135 65.0085 293.068 68.3064 292.243 71.5558C291.468 74.8052 291.08 78.2243 291.08 81.8132C291.08 86.469 292.001 89.8639 293.844 91.9978C295.735 94.1317 298.694 95.3927 302.719 95.7807V75.4114C302.719 70.7071 303.81 67.0939 305.993 64.572C308.224 62.0501 311.255 60.7892 315.086 60.7892C324.058 60.7892 328.544 67.3607 328.544 80.5037ZM309.121 95.7807C312.322 95.4897 314.819 94.8107 316.614 93.7437C318.457 92.6768 319.766 91.1006 320.542 89.0151C321.318 86.9297 321.706 84.1411 321.706 80.6492C321.706 76.9148 321.488 74.0049 321.051 71.9195C320.615 69.7856 319.912 68.2822 318.942 67.4092C318.02 66.4877 316.784 66.027 315.232 66.027C313.292 66.027 311.788 66.706 310.721 68.0639C309.654 69.3734 309.121 71.9195 309.121 75.7024V95.7807Z" fill="#D5D5D5"/>
</svg>
