<svg width="1417" height="631" viewBox="0 0 1417 631" fill="none" xmlns="http://www.w3.org/2000/svg">
<path fill-rule="evenodd" clip-rule="evenodd" d="M0.687681 630.837L0.687681 0.00012207C169.685 6.04047 304.834 144.947 304.834 315.418C304.834 485.89 169.685 624.796 0.687681 630.837Z" fill="#FF6D1D"/>
<path fill-rule="evenodd" clip-rule="evenodd" d="M201.085 630.837L201.085 0.000244141C370.082 6.04111 505.23 144.947 505.23 315.418C505.23 485.89 370.082 624.796 201.085 630.837Z" fill="#FF6D1D"/>
<path fill-rule="evenodd" clip-rule="evenodd" d="M502.474 630.837L502.474 0C671.472 6.03982 806.621 144.946 806.621 315.418C806.621 485.89 671.472 624.797 502.474 630.837Z" fill="#FF6D1D"/>
<path fill-rule="evenodd" clip-rule="evenodd" d="M1167.33 630.837V0.00012207C1336.32 6.03994 1471.47 144.946 1471.47 315.418C1471.47 485.891 1336.32 624.797 1167.33 630.837Z" fill="#FF6D1D"/>
</svg>
