<svg width="1378" height="1040" viewBox="0 0 1378 1040" fill="none" xmlns="http://www.w3.org/2000/svg">
<path d="M778.778 264.57C778.778 270.245 779.602 274.456 781.249 277.202C783.08 279.765 785.918 281.779 789.762 283.244L782.348 306.586C774.109 305.854 767.335 303.84 762.026 300.545C756.9 297.249 752.964 292.215 750.218 285.441C745.275 292.764 739.05 298.256 731.544 301.918C724.221 305.396 715.982 307.135 706.829 307.135C692.365 307.135 680.923 303.016 672.502 294.778C664.08 286.539 659.869 275.738 659.869 262.373C659.869 246.628 665.545 234.637 676.895 226.398C688.429 217.977 704.815 213.766 726.052 213.766H744.176V205.528C744.176 196.191 741.979 189.692 737.585 186.03C733.375 182.185 726.509 180.263 716.989 180.263C706.371 180.263 693.555 182.826 678.543 187.952L670.305 164.061C688.429 157.104 706.005 153.625 723.031 153.625C760.195 153.625 778.778 170.285 778.778 203.605V264.57ZM716.165 281.596C728.065 281.596 737.402 275.646 744.176 263.746V234.362H729.622C706.92 234.362 695.569 242.784 695.569 259.627C695.569 266.584 697.309 271.985 700.787 275.829C704.265 279.674 709.392 281.596 716.165 281.596Z" fill="black"/>
<rect x="227.062" width="562.751" height="463.93" fill="#D5D5D5"/>
<path d="M909.618 269.238C909.618 275.097 910.625 279.491 912.639 282.42C914.653 285.166 917.673 287.272 921.701 288.736L915.934 306.311C908.428 305.396 902.386 303.291 897.809 299.995C893.233 296.7 889.846 291.574 887.649 284.617C877.946 299.08 863.574 306.311 844.534 306.311C830.254 306.311 818.995 302.284 810.756 294.228C802.518 286.173 798.399 275.646 798.399 262.648C798.399 247.269 803.891 235.461 814.876 227.222C826.043 218.984 841.788 214.865 862.109 214.865H884.353V204.155C884.353 193.902 881.882 186.579 876.939 182.185C871.996 177.792 864.398 175.595 854.146 175.595C843.527 175.595 830.529 178.158 815.15 183.284L808.834 164.885C826.776 158.294 843.436 154.998 858.814 154.998C875.84 154.998 888.564 159.209 896.986 167.631C905.407 175.869 909.618 187.678 909.618 203.056V269.238ZM850.301 287.363C864.764 287.363 876.115 279.857 884.353 264.845V231.616H865.405C838.676 231.616 825.311 241.502 825.311 261.275C825.311 269.879 827.416 276.378 831.627 280.772C835.838 285.166 842.063 287.363 850.301 287.363Z" fill="black"/>
<path d="M1043.95 270.406C1043.95 277.912 1044.87 283.313 1046.7 286.609C1048.71 289.904 1051.83 292.376 1056.04 294.023L1052.47 305.282C1045.88 304.001 1040.75 301.529 1037.09 297.868C1033.61 294.206 1031.32 288.622 1030.22 281.116C1020.34 297.227 1005.42 305.282 985.46 305.282C971.729 305.282 960.836 301.438 952.781 293.749C944.908 285.876 940.972 275.441 940.972 262.443C940.972 247.613 946.19 236.171 956.625 228.116C967.244 220.06 981.89 216.033 1000.56 216.033H1028.03V202.027C1028.03 190.493 1025.46 182.163 1020.34 177.037C1015.21 171.728 1006.7 169.073 994.797 169.073C983.812 169.073 970.814 171.819 955.801 177.312L951.682 165.229C967.793 158.821 982.897 155.617 996.994 155.617C1028.3 155.617 1043.95 170.813 1043.95 201.203V270.406ZM988.206 292.376C1005.42 292.376 1018.69 283.954 1028.03 267.111V227.566H1003.04C988.389 227.566 977.221 230.404 969.532 236.079C961.843 241.755 957.998 250.268 957.998 261.619C957.998 271.505 960.653 279.102 965.962 284.412C971.271 289.721 978.686 292.376 988.206 292.376Z" fill="black"/>
<path d="M1176.58 272.738C1176.58 280.794 1177.5 286.561 1179.33 290.039C1181.34 293.518 1184.45 296.081 1188.67 297.728L1185.64 306.791C1179.42 305.143 1174.66 302.397 1171.36 298.552C1168.25 294.708 1166.33 289.032 1165.6 281.526C1155.16 298.369 1140.06 306.791 1120.29 306.791C1106.74 306.791 1096.03 302.946 1088.16 295.257C1080.28 287.385 1076.35 276.949 1076.35 263.951C1076.35 249.305 1081.57 238.045 1092 230.173C1102.44 222.118 1116.62 218.09 1134.57 218.09H1163.95V202.986C1163.95 191.086 1161.3 182.39 1155.99 176.898C1150.68 171.405 1141.89 168.659 1129.62 168.659C1118.09 168.659 1105.09 171.497 1090.63 177.172L1087.06 167.012C1102.99 160.787 1117.54 157.675 1130.72 157.675C1146.47 157.675 1158 161.428 1165.32 168.934C1172.83 176.44 1176.58 187.516 1176.58 202.162V272.738ZM1121.93 296.081C1140.42 296.081 1154.43 287.018 1163.95 268.894V227.976H1136.49C1121.48 227.976 1109.94 230.997 1101.89 237.039C1093.83 242.897 1089.8 251.776 1089.8 263.676C1089.8 273.928 1092.64 281.892 1098.32 287.568C1103.99 293.243 1111.86 296.081 1121.93 296.081Z" fill="black"/>
<path d="M1304.56 742.078C1304.56 747.753 1305.39 751.964 1307.04 754.71C1308.87 757.273 1311.7 759.287 1315.55 760.752L1308.13 784.094C1299.9 783.362 1293.12 781.348 1287.81 778.052C1282.69 774.757 1278.75 769.722 1276 762.949C1271.06 770.272 1264.84 775.764 1257.33 779.425C1250.01 782.904 1241.77 784.643 1232.62 784.643C1218.15 784.643 1206.71 780.524 1198.29 772.285C1189.87 764.047 1185.66 753.245 1185.66 739.881C1185.66 724.136 1191.33 712.145 1202.68 703.906C1214.22 695.485 1230.6 691.274 1251.84 691.274H1269.96V683.036C1269.96 673.699 1267.77 667.199 1263.37 663.538C1259.16 659.693 1252.3 657.771 1242.78 657.771C1232.16 657.771 1219.34 660.334 1204.33 665.46L1196.09 641.569C1214.22 634.612 1231.79 631.133 1248.82 631.133C1285.98 631.133 1304.56 647.793 1304.56 681.113V742.078ZM1241.95 759.104C1253.85 759.104 1263.19 753.154 1269.96 741.254V711.87H1255.41C1232.71 711.87 1221.36 720.292 1221.36 737.135C1221.36 744.092 1223.1 749.492 1226.57 753.337C1230.05 757.182 1235.18 759.104 1241.95 759.104Z" fill="black"/>
<path d="M1301.95 587.991C1301.95 595.497 1302.86 600.898 1304.69 604.193C1306.71 607.489 1309.82 609.96 1314.03 611.608L1310.46 622.867C1303.87 621.585 1298.74 619.114 1295.08 615.452C1291.6 611.791 1289.31 606.207 1288.22 598.701C1278.33 614.812 1263.41 622.867 1243.45 622.867C1229.72 622.867 1218.83 619.022 1210.77 611.333C1202.9 603.461 1198.97 593.025 1198.97 580.027C1198.97 565.198 1204.18 553.755 1214.62 545.7C1225.24 537.645 1239.88 533.617 1258.56 533.617H1286.02V519.612C1286.02 508.078 1283.46 499.748 1278.33 494.622C1273.2 489.312 1264.69 486.658 1252.79 486.658C1241.81 486.658 1228.81 489.404 1213.8 494.896L1209.68 482.813C1225.79 476.405 1240.89 473.202 1254.99 473.202C1286.29 473.202 1301.95 488.397 1301.95 518.788V587.991ZM1246.2 609.96C1263.41 609.96 1276.68 601.539 1286.02 584.695V545.151H1261.03C1246.38 545.151 1235.22 547.989 1227.53 553.664C1219.84 559.339 1215.99 567.852 1215.99 579.203C1215.99 589.089 1218.65 596.687 1223.96 601.996C1229.27 607.305 1236.68 609.96 1246.2 609.96Z" fill="black"/>
<path d="M1304.82 430.399C1304.82 438.455 1305.74 444.221 1307.57 447.7C1309.58 451.178 1312.7 453.741 1316.91 455.389L1313.89 464.451C1307.66 462.804 1302.9 460.058 1299.61 456.213C1296.49 452.368 1294.57 446.693 1293.84 439.187C1283.4 456.03 1268.3 464.451 1248.53 464.451C1234.98 464.451 1224.27 460.607 1216.4 452.918C1208.53 445.045 1204.59 434.61 1204.59 421.611C1204.59 406.965 1209.81 395.706 1220.24 387.834C1230.68 379.778 1244.87 375.751 1262.81 375.751H1292.19V360.647C1292.19 348.747 1289.54 340.051 1284.23 334.558C1278.92 329.066 1270.13 326.32 1257.87 326.32C1246.33 326.32 1233.33 329.158 1218.87 334.833L1215.3 324.672C1231.23 318.448 1245.78 315.335 1258.96 315.335C1274.71 315.335 1286.24 319.088 1293.57 326.595C1301.07 334.101 1304.82 345.177 1304.82 359.823V430.399ZM1250.18 453.741C1268.67 453.741 1282.67 444.679 1292.19 426.555V385.637H1264.73C1249.72 385.637 1238.18 388.658 1230.13 394.699C1222.07 400.558 1218.05 409.437 1218.05 421.337C1218.05 431.589 1220.88 439.553 1226.56 445.228C1232.23 450.904 1240.11 453.741 1250.18 453.741Z" fill="black"/>
<path d="M1296.93 271.3C1296.93 280.637 1297.85 287.319 1299.68 291.347C1301.69 295.374 1305.08 298.212 1309.84 299.86L1308.19 304.253C1302.52 302.423 1298.4 299.493 1295.84 295.466C1293.27 291.255 1291.9 284.939 1291.72 276.517C1281.28 295.008 1265.81 304.253 1245.31 304.253C1231.94 304.253 1221.41 300.409 1213.73 292.72C1206.22 285.03 1202.47 274.778 1202.47 261.963C1202.47 247.683 1207.5 236.607 1217.57 228.734C1227.64 220.862 1241.28 216.926 1258.49 216.926H1290.89V199.9C1290.89 187.084 1288.05 177.564 1282.38 171.34C1276.89 164.932 1267.55 161.728 1254.37 161.728C1242.83 161.728 1229.74 164.749 1215.1 170.79L1213.18 165.573C1228.19 159.348 1241.92 156.236 1254.37 156.236C1269.2 156.236 1280 159.897 1286.77 167.22C1293.55 174.36 1296.93 185.07 1296.93 199.35V271.3ZM1245.31 298.487C1256.11 298.487 1265.17 296.015 1272.49 291.072C1279.82 285.946 1285.95 278.531 1290.89 268.828V222.418H1259.59C1243.66 222.418 1231.21 225.805 1222.24 232.579C1213.45 239.353 1209.06 249.147 1209.06 261.963C1209.06 273.313 1212.26 282.284 1218.67 288.875C1225.26 295.283 1234.14 298.487 1245.31 298.487Z" fill="black"/>
<rect x="173.502" width="562.751" height="463.93" fill="#D5D5D5"/>
<path d="M767.12 262.648C767.12 268.323 767.944 272.534 769.592 275.28C771.239 277.843 773.985 279.765 777.83 281.047L769.592 306.861C760.987 306.128 753.938 304.115 748.446 300.819C743.137 297.524 739.018 292.398 736.088 285.441C726.568 300.087 712.014 307.41 692.425 307.41C677.962 307.41 666.428 303.291 657.823 295.052C649.402 286.631 645.191 275.738 645.191 262.373C645.191 246.445 650.958 234.271 662.492 225.849C674.025 217.428 690.594 213.217 712.197 213.217H728.948V206.077C728.948 197.106 726.935 190.882 722.907 187.403C718.879 183.925 712.197 182.185 702.86 182.185C692.608 182.185 679.792 184.748 664.414 189.875L655.626 163.786C673.751 156.646 691.692 153.076 709.451 153.076C729.223 153.076 743.778 157.378 753.115 165.983C762.452 174.405 767.12 187.037 767.12 203.88V262.648ZM703.135 279.399C714.119 279.399 722.724 273.998 728.948 263.197V235.461H716.042C694.988 235.461 684.461 243.333 684.461 259.078C684.461 265.485 686.017 270.52 689.129 274.182C692.425 277.66 697.093 279.399 703.135 279.399Z" fill="black"/>
<rect y="113.154" width="642.713" height="323.619" fill="#D5D5D5"/>
<path d="M228.185 304.524H178.205L175.734 233.399L175.459 221.591C175.093 210.606 174.91 202.276 174.91 196.601C174.91 182.87 175.459 169.139 176.558 155.408L150.469 284.752H102.411L74.6752 155.408C76.3229 176.828 77.1468 195.685 77.1468 211.979C77.1468 221.316 77.0552 228.456 76.8722 233.399L74.6752 304.524H24.6953L38.7006 113.667H101.862L127.401 240.264L150.469 113.667H213.905L228.185 304.524ZM381.712 229.005C381.712 230.104 381.438 235.596 380.888 245.482H291.364C292.645 256.65 295.758 264.339 300.701 268.55C305.827 272.578 313.058 274.591 322.395 274.591C327.888 274.591 333.288 273.584 338.598 271.571C344.09 269.374 350.04 266.078 356.448 261.684L376.22 288.597C368.531 295.004 359.743 300.131 349.857 303.975C339.971 307.637 329.261 309.467 317.727 309.467C292.828 309.467 273.88 302.511 260.882 288.597C248.066 274.5 241.658 255.643 241.658 232.026C241.658 217.197 244.313 203.832 249.622 191.932C255.115 180.032 263.17 170.604 273.788 163.647C284.407 156.69 297.222 153.211 312.235 153.211C333.655 153.211 350.589 159.894 363.038 173.258C375.488 186.44 381.712 205.022 381.712 229.005ZM333.655 215.274C333.472 205.571 331.824 198.065 328.712 192.756C325.599 187.447 320.382 184.792 313.058 184.792C306.285 184.792 301.158 187.172 297.68 191.932C294.202 196.692 292.005 205.022 291.089 216.922H333.655V215.274ZM498.613 297.384C492.937 301.412 486.346 304.433 478.84 306.447C471.334 308.461 464.011 309.467 456.871 309.467C423.002 309.467 406.067 290.794 406.067 253.446V191.658H387.119V158.154H406.067V127.123L454.949 121.356V158.154H488.177L483.234 191.658H454.949V252.897C454.949 259.488 455.956 264.156 457.97 266.902C460.166 269.648 463.37 271.021 467.581 271.021C472.707 271.021 477.65 269.648 482.41 266.902L498.613 297.384ZM627.1 259.488C627.1 264.797 627.741 268.733 629.023 271.296C630.487 273.859 632.959 275.781 636.437 277.063L626.551 308.644C617.214 307.911 609.525 305.989 603.483 302.877C597.625 299.764 592.865 294.821 589.203 288.047C579.866 302.327 565.129 309.467 544.99 309.467C530.527 309.467 518.902 305.257 510.114 296.835C501.51 288.231 497.207 277.154 497.207 263.607C497.207 247.496 503.157 235.138 515.057 226.534C526.957 217.929 544.167 213.627 566.685 213.627H579.317V208.684C579.317 200.811 577.67 195.502 574.374 192.756C571.079 189.827 565.129 188.362 556.524 188.362C551.947 188.362 546.18 189.094 539.223 190.559C532.45 191.841 525.493 193.671 518.353 196.051L507.643 164.471C516.43 160.809 525.859 158.063 535.928 156.232C545.997 154.218 555.334 153.211 563.939 153.211C585.908 153.211 601.927 157.605 611.996 166.393C622.066 174.998 627.1 188.271 627.1 206.212V259.488ZM559.82 275.141C563.847 275.141 567.509 274.134 570.804 272.12C574.283 269.923 577.12 266.994 579.317 263.332V239.715H571.079C562.291 239.715 555.792 241.363 551.581 244.658C547.37 247.771 545.265 252.531 545.265 258.938C545.265 263.881 546.547 267.818 549.11 270.747C551.673 273.676 555.243 275.141 559.82 275.141Z" fill="black"/>
<path d="M916.791 747.306C801.668 747.306 708.343 653.98 708.343 538.857C708.343 423.734 801.668 330.409 916.791 330.409C1031.91 330.409 1125.24 423.734 1125.24 538.857C1125.24 653.98 1031.91 747.306 916.791 747.306Z" fill="black" stroke="black" stroke-width="1.50871"/>
<rect y="199.15" width="642.713" height="324.374" fill="#D5D5D5"/>
<path d="M228.185 391.275H178.205L175.734 320.15L175.459 308.342C175.093 297.357 174.91 289.027 174.91 283.352C174.91 269.621 175.459 255.89 176.558 242.159L150.469 371.503H102.411L74.6752 242.159C76.3229 263.579 77.1468 282.436 77.1468 298.73C77.1468 308.067 77.0552 315.207 76.8722 320.15L74.6752 391.275H24.6953L38.7006 200.418H101.862L127.401 327.015L150.469 200.418H213.905L228.185 391.275ZM381.712 315.756C381.712 316.855 381.438 322.347 380.888 332.233H291.364C292.645 343.401 295.758 351.09 300.701 355.301C305.827 359.328 313.058 361.342 322.395 361.342C327.888 361.342 333.288 360.335 338.598 358.322C344.09 356.125 350.04 352.829 356.448 348.435L376.22 375.348C368.531 381.755 359.743 386.882 349.857 390.726C339.971 394.388 329.261 396.218 317.727 396.218C292.828 396.218 273.88 389.262 260.882 375.348C248.066 361.251 241.658 342.394 241.658 318.777C241.658 303.948 244.313 290.583 249.622 278.683C255.115 266.783 263.17 257.355 273.788 250.398C284.407 243.441 297.222 239.962 312.235 239.962C333.655 239.962 350.589 246.645 363.038 260.009C375.488 273.191 381.712 291.773 381.712 315.756ZM333.655 302.025C333.472 292.322 331.824 284.816 328.712 279.507C325.599 274.198 320.382 271.543 313.058 271.543C306.285 271.543 301.158 273.923 297.68 278.683C294.202 283.443 292.005 291.773 291.089 303.673H333.655V302.025ZM498.613 384.135C492.937 388.163 486.346 391.184 478.84 393.198C471.334 395.212 464.011 396.218 456.871 396.218C423.002 396.218 406.067 377.545 406.067 340.197V278.409H387.119V244.905H406.067V213.874L454.949 208.107V244.905H488.177L483.234 278.409H454.949V339.648C454.949 346.238 455.956 350.907 457.97 353.653C460.166 356.399 463.37 357.772 467.581 357.772C472.707 357.772 477.65 356.399 482.41 353.653L498.613 384.135ZM627.1 346.238C627.1 351.548 627.741 355.484 629.023 358.047C630.487 360.61 632.959 362.532 636.437 363.814L626.551 395.395C617.214 394.662 609.525 392.74 603.483 389.628C597.625 386.515 592.865 381.572 589.203 374.798C579.866 389.078 565.129 396.218 544.99 396.218C530.527 396.218 518.902 392.008 510.114 383.586C501.51 374.982 497.207 363.905 497.207 350.358C497.207 334.247 503.157 321.889 515.057 313.285C526.957 304.68 544.167 300.378 566.685 300.378H579.317V295.435C579.317 287.562 577.67 282.253 574.374 279.507C571.079 276.578 565.129 275.113 556.524 275.113C551.947 275.113 546.18 275.845 539.223 277.31C532.45 278.592 525.493 280.422 518.353 282.802L507.643 251.222C516.43 247.56 525.859 244.814 535.928 242.983C545.997 240.969 555.334 239.962 563.939 239.962C585.908 239.962 601.927 244.356 611.996 253.144C622.066 261.749 627.1 275.022 627.1 292.963V346.238ZM559.82 361.892C563.847 361.892 567.509 360.885 570.804 358.871C574.283 356.674 577.12 353.745 579.317 350.083V326.466H571.079C562.291 326.466 555.792 328.114 551.581 331.409C547.37 334.522 545.265 339.282 545.265 345.689C545.265 350.632 546.547 354.568 549.11 357.498C551.673 360.427 555.243 361.892 559.82 361.892Z" fill="black"/>
<rect y="317.584" width="642.713" height="323.619" fill="#D5D5D5"/>
<path d="M228.185 509.71H178.205L175.734 438.585L175.459 426.776C175.093 415.792 174.91 407.462 174.91 401.786C174.91 388.055 175.459 374.325 176.558 360.594L150.469 489.938H102.411L74.6752 360.594C76.3229 382.014 77.1468 400.871 77.1468 417.165C77.1468 426.502 77.0552 433.642 76.8722 438.585L74.6752 509.71H24.6953L38.7006 318.852H101.862L127.401 445.45L150.469 318.852H213.905L228.185 509.71ZM381.712 434.191C381.712 435.289 381.438 440.782 380.888 450.668H291.364C292.645 461.835 295.758 469.525 300.701 473.735C305.827 477.763 313.058 479.777 322.395 479.777C327.888 479.777 333.288 478.77 338.598 476.756C344.09 474.559 350.04 471.264 356.448 466.87L376.22 493.782C368.531 500.19 359.743 505.316 349.857 509.161C339.971 512.822 329.261 514.653 317.727 514.653C292.828 514.653 273.88 507.696 260.882 493.782C248.066 479.685 241.658 460.828 241.658 437.212C241.658 422.382 244.313 409.018 249.622 397.118C255.115 385.218 263.17 375.789 273.788 368.832C284.407 361.875 297.222 358.397 312.235 358.397C333.655 358.397 350.589 365.079 363.038 378.444C375.488 391.625 381.712 410.208 381.712 434.191ZM333.655 420.46C333.472 410.757 331.824 403.251 328.712 397.942C325.599 392.632 320.382 389.978 313.058 389.978C306.285 389.978 301.158 392.358 297.68 397.118C294.202 401.878 292.005 410.208 291.089 422.108H333.655V420.46ZM498.613 502.57C492.937 506.598 486.346 509.618 478.84 511.632C471.334 513.646 464.011 514.653 456.871 514.653C423.002 514.653 406.067 495.979 406.067 458.632V396.843H387.119V363.34H406.067V332.308L454.949 326.542V363.34H488.177L483.234 396.843H454.949V458.082C454.949 464.673 455.956 469.342 457.97 472.088C460.166 474.834 463.37 476.207 467.581 476.207C472.707 476.207 477.65 474.834 482.41 472.088L498.613 502.57ZM627.1 464.673C627.1 469.982 627.741 473.918 629.023 476.482C630.487 479.045 632.959 480.967 636.437 482.248L626.551 513.829C617.214 513.097 609.525 511.175 603.483 508.062C597.625 504.95 592.865 500.007 589.203 493.233C579.866 507.513 565.129 514.653 544.99 514.653C530.527 514.653 518.902 510.442 510.114 502.021C501.51 493.416 497.207 482.34 497.207 468.792C497.207 452.682 503.157 440.324 515.057 431.719C526.957 423.115 544.167 418.812 566.685 418.812H579.317V413.869C579.317 405.997 577.67 400.688 574.374 397.942C571.079 395.012 565.129 393.548 556.524 393.548C551.947 393.548 546.18 394.28 539.223 395.745C532.45 397.026 525.493 398.857 518.353 401.237L507.643 369.656C516.43 365.995 525.859 363.248 535.928 361.418C545.997 359.404 555.334 358.397 563.939 358.397C585.908 358.397 601.927 362.791 611.996 371.578C622.066 380.183 627.1 393.456 627.1 411.398V464.673ZM559.82 480.326C563.847 480.326 567.509 479.319 570.804 477.305C574.283 475.108 577.12 472.179 579.317 468.518V444.901H571.079C562.291 444.901 555.792 446.548 551.581 449.844C547.37 452.956 545.265 457.716 545.265 464.124C545.265 469.067 546.547 473.003 549.11 475.932C551.673 478.862 555.243 480.326 559.82 480.326Z" fill="black"/>
<rect y="488.069" width="642.713" height="323.619" fill="#D5D5D5"/>
<path d="M228.185 680.949H178.205L175.734 609.823L175.459 598.015C175.093 587.03 174.91 578.7 174.91 573.025C174.91 559.294 175.459 545.563 176.558 531.833L150.469 661.176H102.411L74.6752 531.833C76.3229 553.253 77.1468 572.11 77.1468 588.403C77.1468 597.74 77.0552 604.88 76.8722 609.823L74.6752 680.949H24.6953L38.7006 490.091H101.862L127.401 616.689L150.469 490.091H213.905L228.185 680.949ZM381.712 605.43C381.712 606.528 381.438 612.02 380.888 621.906H291.364C292.645 633.074 295.758 640.763 300.701 644.974C305.827 649.002 313.058 651.016 322.395 651.016C327.888 651.016 333.288 650.009 338.598 647.995C344.09 645.798 350.04 642.503 356.448 638.109L376.22 665.021C368.531 671.429 359.743 676.555 349.857 680.399C339.971 684.061 329.261 685.892 317.727 685.892C292.828 685.892 273.88 678.935 260.882 665.021C248.066 650.924 241.658 632.067 241.658 608.45C241.658 593.621 244.313 580.256 249.622 568.356C255.115 556.456 263.17 547.028 273.788 540.071C284.407 533.114 297.222 529.636 312.235 529.636C333.655 529.636 350.589 536.318 363.038 549.683C375.488 562.864 381.712 581.446 381.712 605.43ZM333.655 591.699C333.472 581.996 331.824 574.49 328.712 569.18C325.599 563.871 320.382 561.216 313.058 561.216C306.285 561.216 301.158 563.596 297.68 568.356C294.202 573.116 292.005 581.446 291.089 593.346H333.655V591.699ZM498.613 673.809C492.937 677.836 486.346 680.857 478.84 682.871C471.334 684.885 464.011 685.892 456.871 685.892C423.002 685.892 406.067 667.218 406.067 629.87V568.082H387.119V534.579H406.067V503.547L454.949 497.78V534.579H488.177L483.234 568.082H454.949V629.321C454.949 635.912 455.956 640.58 457.97 643.326C460.166 646.073 463.37 647.446 467.581 647.446C472.707 647.446 477.65 646.073 482.41 643.326L498.613 673.809ZM627.1 635.912C627.1 641.221 627.741 645.157 629.023 647.72C630.487 650.283 632.959 652.206 636.437 653.487L626.551 685.068C617.214 684.336 609.525 682.413 603.483 679.301C597.625 676.189 592.865 671.246 589.203 664.472C579.866 678.752 565.129 685.892 544.99 685.892C530.527 685.892 518.902 681.681 510.114 673.26C501.51 664.655 497.207 653.579 497.207 640.031C497.207 623.92 503.157 611.563 515.057 602.958C526.957 594.353 544.167 590.051 566.685 590.051H579.317V585.108C579.317 577.236 577.67 571.926 574.374 569.18C571.079 566.251 565.129 564.786 556.524 564.786C551.947 564.786 546.18 565.519 539.223 566.983C532.45 568.265 525.493 570.096 518.353 572.476L507.643 540.895C516.43 537.233 525.859 534.487 535.928 532.656C545.997 530.643 555.334 529.636 563.939 529.636C585.908 529.636 601.927 534.03 611.996 542.817C622.066 551.422 627.1 564.695 627.1 582.636V635.912ZM559.82 651.565C563.847 651.565 567.509 650.558 570.804 648.544C574.283 646.347 577.12 643.418 579.317 639.756V616.14H571.079C562.291 616.14 555.792 617.787 551.581 621.083C547.37 624.195 545.265 628.955 545.265 635.363C545.265 640.306 546.547 644.242 549.11 647.171C551.673 650.1 555.243 651.565 559.82 651.565Z" fill="black"/>
<path d="M1209.41 987.385C1212.54 987.385 1215.31 987.842 1217.69 988.755C1220.11 989.669 1222.28 991.04 1224.18 992.867L1219.24 998.708C1216.38 996.443 1213.38 995.311 1210.24 995.311C1208.61 995.311 1207.36 995.629 1206.49 996.264C1205.65 996.86 1205.23 997.714 1205.23 998.827C1205.23 999.621 1205.45 1000.28 1205.89 1000.79C1206.33 1001.31 1207.06 1001.81 1208.09 1002.28C1209.13 1002.76 1210.76 1003.36 1212.98 1004.07C1217.23 1005.42 1220.33 1007.13 1222.28 1009.2C1224.26 1011.22 1225.26 1014.04 1225.26 1017.66C1225.26 1020.28 1224.58 1022.6 1223.23 1024.63C1221.88 1026.62 1219.91 1028.17 1217.33 1029.28C1214.79 1030.39 1211.79 1030.95 1208.33 1030.95C1201.74 1030.95 1196.35 1028.94 1192.18 1024.93L1197.61 1018.91C1200.9 1021.61 1204.34 1022.96 1207.92 1022.96C1209.78 1022.96 1211.23 1022.57 1212.27 1021.77C1213.3 1020.94 1213.82 1019.84 1213.82 1018.49C1213.82 1017.54 1213.62 1016.76 1213.22 1016.17C1212.82 1015.53 1212.11 1014.98 1211.07 1014.5C1210.08 1013.98 1208.61 1013.43 1206.66 1012.83C1201.98 1011.36 1198.68 1009.59 1196.77 1007.53C1194.86 1005.46 1193.91 1002.86 1193.91 999.721C1193.91 997.258 1194.57 995.092 1195.88 993.225C1197.23 991.358 1199.08 989.927 1201.42 988.934C1203.8 987.901 1206.47 987.385 1209.41 987.385ZM1255.89 1020.1C1255.89 1021.25 1256.03 1022.11 1256.31 1022.66C1256.63 1023.22 1257.16 1023.64 1257.92 1023.92L1255.77 1030.77C1253.75 1030.61 1252.08 1030.19 1250.77 1029.52C1249.5 1028.84 1248.46 1027.77 1247.67 1026.3C1245.64 1029.4 1242.45 1030.95 1238.07 1030.95C1234.94 1030.95 1232.41 1030.03 1230.51 1028.21C1228.64 1026.34 1227.71 1023.94 1227.71 1021C1227.71 1017.5 1229 1014.82 1231.58 1012.95C1234.16 1011.08 1237.9 1010.15 1242.78 1010.15H1245.52V1009.08C1245.52 1007.37 1245.17 1006.22 1244.45 1005.62C1243.74 1004.98 1242.45 1004.67 1240.58 1004.67C1239.58 1004.67 1238.33 1004.83 1236.82 1005.14C1235.35 1005.42 1233.84 1005.82 1232.29 1006.34L1229.97 999.482C1231.88 998.688 1233.92 998.092 1236.11 997.695C1238.29 997.258 1240.32 997.039 1242.19 997.039C1246.95 997.039 1250.43 997.993 1252.62 999.9C1254.8 1001.77 1255.89 1004.65 1255.89 1008.54V1020.1ZM1241.29 1023.5C1242.17 1023.5 1242.96 1023.28 1243.68 1022.84C1244.43 1022.37 1245.05 1021.73 1245.52 1020.94V1015.81H1243.74C1241.83 1015.81 1240.42 1016.17 1239.51 1016.88C1238.59 1017.56 1238.13 1018.59 1238.13 1019.98C1238.13 1021.06 1238.41 1021.91 1238.97 1022.55C1239.53 1023.18 1240.3 1023.5 1241.29 1023.5ZM1281.98 997.039C1284.69 997.039 1286.81 997.873 1288.36 999.542C1289.91 1001.21 1290.69 1003.55 1290.69 1006.57V1029.88H1280.08V1008.48C1280.08 1007.09 1279.88 1006.14 1279.48 1005.62C1279.08 1005.06 1278.49 1004.79 1277.69 1004.79C1276.02 1004.79 1274.44 1006 1272.93 1008.42V1029.88H1262.32V998.112H1271.56L1272.33 1001.69C1273.76 1000.1 1275.25 998.926 1276.8 998.171C1278.35 997.416 1280.08 997.039 1281.98 997.039ZM1308.57 997.039C1310.88 997.039 1313.06 997.397 1315.13 998.112C1317.24 998.827 1319.02 999.8 1320.49 1001.03L1316.68 1006.87C1314.14 1005.28 1311.57 1004.49 1308.99 1004.49C1307.88 1004.49 1307.05 1004.67 1306.49 1005.02C1305.97 1005.34 1305.71 1005.8 1305.71 1006.4C1305.71 1006.91 1305.85 1007.33 1306.13 1007.65C1306.41 1007.96 1306.99 1008.32 1307.86 1008.72C1308.77 1009.08 1310.2 1009.55 1312.15 1010.15C1315.41 1011.1 1317.81 1012.35 1319.36 1013.9C1320.91 1015.41 1321.69 1017.54 1321.69 1020.28C1321.69 1022.43 1321.05 1024.31 1319.78 1025.94C1318.55 1027.53 1316.82 1028.76 1314.59 1029.64C1312.41 1030.51 1309.93 1030.95 1307.14 1030.95C1304.44 1030.95 1301.9 1030.53 1299.52 1029.7C1297.17 1028.82 1295.19 1027.63 1293.56 1026.12L1298.62 1020.46C1299.85 1021.41 1301.17 1022.17 1302.56 1022.72C1303.99 1023.28 1305.42 1023.56 1306.85 1023.56C1308.12 1023.56 1309.09 1023.36 1309.77 1022.96C1310.48 1022.53 1310.84 1021.89 1310.84 1021.06C1310.84 1020.42 1310.68 1019.92 1310.36 1019.57C1310.08 1019.21 1309.53 1018.87 1308.69 1018.55C1307.86 1018.2 1306.43 1017.72 1304.4 1017.12C1298.25 1015.29 1295.17 1011.94 1295.17 1007.05C1295.17 1005.18 1295.7 1003.5 1296.78 1001.99C1297.85 1000.44 1299.38 999.224 1301.36 998.35C1303.39 997.476 1305.79 997.039 1308.57 997.039Z" fill="black"/>
<path d="M42.462 90.7007V49.059H68.0462L66.9078 56.908H53.5465V66.914H65.2901V74.763H53.5465V90.7007H42.462ZM71.6009 90.7007V49.059H97.1851L96.0467 56.908H82.6854V66.914H94.4289V74.763H82.6854V90.7007H71.6009Z" fill="black"/>
<path d="M888.376 949.5V758.642H1005.64L1000.42 794.617H939.18V840.478H993.005V876.452H939.18V949.5H888.376ZM1062.75 803.13V949.5H1013.87V803.13H1062.75ZM1038.31 724.315C1046.55 724.315 1053.23 726.879 1058.36 732.005C1063.67 737.131 1066.32 743.539 1066.32 751.228C1066.32 758.917 1063.67 765.325 1058.36 770.451C1053.23 775.577 1046.55 778.14 1038.31 778.14C1030.07 778.14 1023.3 775.577 1017.99 770.451C1012.86 765.325 1010.3 758.917 1010.3 751.228C1010.3 743.539 1012.86 737.131 1017.99 732.005C1023.3 726.879 1030.07 724.315 1038.31 724.315ZM1175.41 798.736C1180.17 798.736 1185.11 799.56 1190.24 801.208L1182.27 848.442C1177.51 846.977 1173.12 846.245 1169.09 846.245C1160.85 846.245 1154.54 849.082 1150.14 854.758C1145.93 860.25 1142.64 868.672 1140.26 880.022V949.5H1091.37V803.13H1133.94L1138.33 830.866C1141.26 821.163 1146.11 813.382 1152.89 807.524C1159.85 801.665 1167.35 798.736 1175.41 798.736ZM1314.39 904.463C1314.39 909.772 1315.04 913.708 1316.32 916.272C1317.78 918.835 1320.25 920.757 1323.73 922.038L1313.85 953.619C1304.51 952.887 1296.82 950.965 1290.78 947.852C1284.92 944.74 1280.16 939.797 1276.5 933.023C1267.16 947.303 1252.42 954.443 1232.28 954.443C1217.82 954.443 1206.2 950.232 1197.41 941.811C1188.8 933.206 1184.5 922.13 1184.5 908.582C1184.5 892.472 1190.45 880.114 1202.35 871.509C1214.25 862.905 1231.46 858.602 1253.98 858.602H1266.61V853.659C1266.61 845.787 1264.96 840.478 1261.67 837.732C1258.37 834.802 1252.42 833.338 1243.82 833.338C1239.24 833.338 1233.47 834.07 1226.52 835.535C1219.74 836.816 1212.79 838.647 1205.65 841.027L1194.94 809.446C1203.72 805.785 1213.15 803.039 1223.22 801.208C1233.29 799.194 1242.63 798.187 1251.23 798.187C1273.2 798.187 1289.22 802.581 1299.29 811.369C1309.36 819.973 1314.39 833.246 1314.39 851.188V904.463ZM1247.11 920.116C1251.14 920.116 1254.8 919.109 1258.1 917.095C1261.58 914.898 1264.41 911.969 1266.61 908.308V884.691H1258.37C1249.59 884.691 1243.09 886.338 1238.88 889.634C1234.66 892.746 1232.56 897.506 1232.56 903.914C1232.56 908.857 1233.84 912.793 1236.4 915.722C1238.97 918.652 1242.54 920.116 1247.11 920.116Z" fill="black"/>
<rect x="75.437" y="574.066" width="880.335" height="374.916" fill="#D5D5D5" stroke="black" stroke-width="1.50871"/>
<rect x="75.437" y="574.066" width="874.3" height="374.916" fill="#D5D5D5" stroke="black" stroke-width="1.50871"/>
<rect x="75.437" y="574.066" width="862.985" height="374.916" fill="#D5D5D5" stroke="black" stroke-width="1.50871"/>
<rect x="75.437" y="574.066" width="840.354" height="374.916" fill="#D5D5D5" stroke="black" stroke-width="1.50871"/>
<rect x="75.437" y="574.066" width="813.197" height="374.916" fill="#D5D5D5" stroke="black" stroke-width="1.50871"/>
<rect x="73.9282" y="574.066" width="536.348" height="374.916" fill="#D5D5D5" stroke="black" stroke-width="1.50871"/>
<rect x="73.9282" y="574.066" width="632.906" height="374.916" fill="#D5D5D5" stroke="black" stroke-width="1.50871"/>
<rect x="73.9282" y="574.066" width="724.938" height="374.916" stroke="black" stroke-width="1.50871"/>
<rect x="73.9282" y="574.066" width="775.479" height="374.916" stroke="black" stroke-width="1.50871"/>
<rect x="66.3842" y="574.066" width="374.916" height="374.916" fill="#D5D5D5" stroke="black" stroke-width="1.50871"/>
</svg>
