<svg width="1440" height="975" viewBox="0 0 1440 975" fill="none" xmlns="http://www.w3.org/2000/svg">
<rect x="-57.5215" y="28.4194" width="1518.52" height="954.262" rx="29.0736" fill="#FF6D1D"/>
<path d="M523.5 30.7927C501.536 30.2935 670.056 30.5602 520.992 30.7723C512.939 30.7838 506.361 24.2582 506.361 16.2053V16.2053C506.361 8.15928 499.838 1.63675 491.792 1.63678L288.105 1.63768C280.054 1.63771 273.527 8.16427 273.527 16.2152V16.2152C273.527 24.2661 267.001 30.7927 258.95 30.7927H258.307" stroke="black" stroke-width="0.818975"/>
<path d="M331.295 29.1374C509.904 28.9249 845.684 28.6544 867.71 29.1549L879.768 54.3137H72.228L80.5259 29.1549H81.169C89.22 29.1549 95.7465 22.6284 95.7465 14.5775C95.7465 6.52655 102.273 0 110.324 0H302.198C310.244 0 316.767 6.52254 316.767 14.5685C316.767 22.6215 323.242 29.1469 331.295 29.1374Z" fill="#FF6D1D"/>
<path d="M1038.26 308.372C1038.26 349.917 1029.71 387.499 1015.91 414.673C1002.09 441.88 983.109 458.49 962.315 458.49C941.521 458.49 922.542 441.88 908.725 414.673C894.925 387.499 886.372 349.917 886.372 308.372C886.372 266.828 894.925 229.246 908.725 202.072C922.542 174.865 941.521 158.255 962.315 158.255C983.109 158.255 1002.09 174.865 1015.91 202.072C1029.71 229.246 1038.26 266.828 1038.26 308.372Z" stroke="black" stroke-width="1.18905"/>
<path d="M1129.45 308.372C1129.45 349.917 1120.89 387.499 1107.09 414.673C1093.28 441.88 1074.3 458.49 1053.5 458.49C1032.71 458.49 1013.73 441.88 999.914 414.673C986.114 387.499 977.561 349.917 977.561 308.372C977.561 266.828 986.114 229.246 999.914 202.072C1013.73 174.865 1032.71 158.255 1053.5 158.255C1074.3 158.255 1093.28 174.865 1107.09 202.072C1120.89 229.246 1129.45 266.828 1129.45 308.372Z" stroke="black" stroke-width="1.18905"/>
<path d="M1251.04 308.372C1251.04 349.954 1246.55 387.578 1239.31 414.789C1235.68 428.399 1231.38 439.369 1226.62 446.924C1221.85 454.508 1216.72 458.49 1211.51 458.49C1206.29 458.49 1201.16 454.508 1196.39 446.924C1191.63 439.369 1187.33 428.399 1183.7 414.789C1176.46 387.578 1171.97 349.954 1171.97 308.372C1171.97 266.791 1176.46 229.167 1183.7 201.956C1187.33 188.346 1191.63 177.375 1196.39 169.821C1201.16 162.237 1206.29 158.255 1211.51 158.255C1216.72 158.255 1221.85 162.237 1226.62 169.821C1231.38 177.375 1235.68 188.346 1239.31 201.956C1246.55 229.167 1251.04 266.791 1251.04 308.372Z" stroke="black" stroke-width="1.18905"/>
<path d="M892.117 308.372C892.117 349.917 883.565 387.499 869.765 414.673C855.948 441.88 836.968 458.49 816.174 458.49C795.381 458.49 776.401 441.88 762.584 414.673C748.784 387.499 740.231 349.917 740.231 308.372C740.231 266.828 748.784 229.246 762.584 202.072C776.401 174.865 795.381 158.255 816.174 158.255C836.968 158.255 855.948 174.865 869.765 202.072C883.565 229.246 892.117 266.828 892.117 308.372Z" stroke="black" stroke-width="1.18905"/>
<path d="M1012.81 308.372C1012.81 349.917 1004.25 387.499 990.454 414.673C976.637 441.88 957.657 458.49 936.864 458.49C916.07 458.49 897.09 441.88 883.274 414.673C869.474 387.499 860.921 349.917 860.921 308.372C860.921 266.828 869.474 229.246 883.274 202.072C897.09 174.865 916.07 158.255 936.864 158.255C957.657 158.255 976.637 174.865 990.454 202.072C1004.25 229.246 1012.81 266.828 1012.81 308.372Z" stroke="black" stroke-width="1.18905"/>
<path d="M866.664 308.372C866.664 349.917 858.111 387.499 844.311 414.673C830.495 441.88 811.515 458.49 790.721 458.49C769.928 458.49 750.948 441.88 737.131 414.673C723.331 387.499 714.778 349.917 714.778 308.372C714.778 266.828 723.331 229.246 737.131 202.072C750.948 174.865 769.928 158.255 790.721 158.255C811.515 158.255 830.495 174.865 844.311 202.072C858.111 229.246 866.664 266.828 866.664 308.372Z" stroke="black" stroke-width="1.18905"/>
<path d="M987.356 308.372C987.356 349.917 978.803 387.499 965.003 414.673C951.186 441.88 932.206 458.49 911.413 458.49C890.619 458.49 871.639 441.88 857.822 414.673C844.022 387.499 835.47 349.917 835.47 308.372C835.47 266.828 844.022 229.246 857.822 202.072C871.639 174.865 890.619 158.255 911.413 158.255C932.206 158.255 951.186 174.865 965.003 202.072C978.803 229.246 987.356 266.828 987.356 308.372Z" stroke="black" stroke-width="1.18905"/>
<path d="M955.25 308.372C955.25 349.917 946.697 387.499 932.897 414.673C919.081 441.88 900.101 458.49 879.307 458.49C858.514 458.49 839.534 441.88 825.717 414.673C811.917 387.499 803.364 349.917 803.364 308.372C803.364 266.828 811.917 229.246 825.717 202.072C839.534 174.865 858.514 158.255 879.307 158.255C900.101 158.255 919.081 174.865 932.897 202.072C946.697 229.246 955.25 266.828 955.25 308.372Z" stroke="black" stroke-width="1.18905"/>
<path d="M921.365 308.372C921.365 349.917 912.813 387.499 899.013 414.673C885.196 441.88 866.216 458.49 845.422 458.49C824.629 458.49 805.649 441.88 791.832 414.673C778.032 387.499 769.479 349.917 769.479 308.372C769.479 266.828 778.032 229.246 791.832 202.072C805.649 174.865 824.629 158.255 845.422 158.255C866.216 158.255 885.196 174.865 899.013 202.072C912.813 229.246 921.365 266.828 921.365 308.372Z" stroke="black" stroke-width="1.18905"/>
<path d="M186.747 735.043C186.747 731.113 187.323 727.758 188.475 724.979C189.627 722.2 191.389 719.455 193.761 716.744L195.49 718.269C193.185 720.709 191.525 723.251 190.508 725.894C189.424 728.469 188.882 731.519 188.882 735.043C188.882 739.991 190.169 743.99 192.745 747.04C195.32 750.022 198.641 751.513 202.708 751.513C205.554 751.513 207.892 750.971 209.722 749.886C211.552 748.734 213.145 746.938 214.5 744.498C215.856 742.058 217.211 738.602 218.567 734.129C220.058 729.384 221.617 725.623 223.243 722.844C224.87 720.065 226.903 717.998 229.343 716.643C231.715 715.287 234.765 714.609 238.493 714.609C242.288 714.609 245.677 715.524 248.659 717.354C251.641 719.116 253.945 721.59 255.572 724.776C257.198 727.961 258.012 731.621 258.012 735.755C258.012 740.093 257.3 743.888 255.877 747.141C254.454 750.394 252.386 753.512 249.675 756.494L248.151 754.969C250.658 752.258 252.556 749.446 253.844 746.531C255.131 743.549 255.775 739.991 255.775 735.857C255.775 730.164 254.216 725.589 251.099 722.132C247.981 718.608 243.813 716.846 238.594 716.846C235.206 716.846 232.461 717.456 230.36 718.676C228.191 719.896 226.395 721.794 224.972 724.369C223.481 726.877 222.023 730.401 220.6 734.942C219.109 739.754 217.584 743.515 216.025 746.226C214.467 748.937 212.637 750.903 210.536 752.123C208.435 753.275 205.825 753.851 202.708 753.851C199.726 753.851 197.015 753.072 194.575 751.513C192.135 749.954 190.237 747.751 188.882 744.905C187.458 742.058 186.747 738.771 186.747 735.043ZM245.812 665.798C249.269 665.798 251.743 665.459 253.234 664.782C254.725 664.036 255.775 662.782 256.385 661.02L258.012 661.63C257.334 663.731 256.25 665.256 254.759 666.205C253.2 667.154 250.862 667.662 247.744 667.73C254.589 671.593 258.012 677.32 258.012 684.911C258.012 689.858 256.588 693.755 253.742 696.602C250.895 699.381 247.1 700.77 242.356 700.77C237.069 700.77 232.969 698.906 230.055 695.178C227.14 691.451 225.683 686.402 225.683 680.031V668.035H219.38C214.636 668.035 211.112 669.085 208.807 671.186C206.435 673.22 205.249 676.676 205.249 681.556C205.249 685.826 206.367 690.671 208.604 696.093L206.672 696.805C204.368 691.248 203.216 686.164 203.216 681.556C203.216 676.066 204.571 672.067 207.282 669.56C209.926 667.052 213.89 665.798 219.177 665.798H245.812ZM255.877 684.911C255.877 680.912 254.962 677.557 253.132 674.846C251.234 672.135 248.489 669.865 244.897 668.035H227.716V679.624C227.716 685.521 228.97 690.129 231.478 693.45C233.986 696.703 237.612 698.33 242.356 698.33C246.558 698.33 249.879 697.144 252.319 694.772C254.691 692.332 255.877 689.045 255.877 684.911ZM203.216 620.221C203.216 615.477 204.605 611.953 207.384 609.648C210.163 607.276 214.195 606.09 219.482 606.09H256.995V608.327H219.685C210.061 608.327 205.249 612.291 205.249 620.221C205.249 624.288 206.334 627.846 208.502 630.896C210.671 633.945 213.823 636.826 217.957 639.537H256.995V641.773H204.233V639.842L215.009 639.639C207.147 634.352 203.216 627.88 203.216 620.221ZM203.216 571.418C203.216 568.3 203.69 565.521 204.639 563.082C205.52 560.574 206.91 558.134 208.807 555.762L210.434 557.083C208.604 559.456 207.282 561.726 206.469 563.895C205.656 565.996 205.249 568.47 205.249 571.316C205.249 575.315 206.266 578.636 208.299 581.279C210.265 583.854 212.908 585.142 216.229 585.142C219.279 585.142 221.651 584.092 223.345 581.991C225.039 579.822 226.598 576.06 228.021 570.706C229.174 566.572 230.36 563.353 231.58 561.048C232.8 558.676 234.358 556.982 236.256 555.965C238.086 554.881 240.458 554.339 243.372 554.339C247.71 554.339 251.234 555.931 253.945 559.117C256.656 562.302 258.012 566.436 258.012 571.519C258.012 575.315 257.436 578.602 256.283 581.381C255.131 584.092 253.471 586.735 251.302 589.31L249.777 587.989C251.878 585.481 253.437 583.007 254.454 580.567C255.402 578.06 255.877 575.044 255.877 571.519C255.877 567.182 254.792 563.624 252.624 560.845C250.387 558.066 247.303 556.677 243.372 556.677C240.797 556.677 238.73 557.151 237.171 558.1C235.544 558.981 234.189 560.472 233.105 562.573C232.02 564.674 230.936 567.724 229.851 571.723C228.36 577.416 226.598 581.482 224.565 583.922C222.532 586.294 219.753 587.48 216.229 587.48C212.433 587.48 209.316 585.955 206.876 582.906C204.436 579.788 203.216 575.959 203.216 571.418Z" fill="black"/>
<path d="M265.442 735.043C265.442 731.113 266.018 727.758 267.17 724.979C268.322 722.2 270.085 719.455 272.457 716.744L274.185 718.269C271.881 720.709 270.22 723.251 269.204 725.894C268.119 728.469 267.577 731.519 267.577 735.043C267.577 739.991 268.865 743.99 271.44 747.04C274.016 750.022 277.336 751.513 281.403 751.513C284.249 751.513 286.588 750.971 288.418 749.886C290.248 748.734 291.84 746.938 293.196 744.498C294.551 742.058 295.907 738.602 297.262 734.129C298.753 729.384 300.312 725.623 301.939 722.844C303.565 720.065 305.598 717.998 308.038 716.643C310.41 715.287 313.46 714.609 317.188 714.609C320.983 714.609 324.372 715.524 327.354 717.354C330.336 719.116 332.641 721.59 334.267 724.776C335.894 727.961 336.707 731.621 336.707 735.755C336.707 740.093 335.995 743.888 334.572 747.141C333.149 750.394 331.082 753.512 328.371 756.494L326.846 754.969C329.353 752.258 331.251 749.446 332.539 746.531C333.827 743.549 334.47 739.991 334.47 735.857C334.47 730.164 332.912 725.589 329.794 722.132C326.676 718.608 322.508 716.846 317.29 716.846C313.901 716.846 311.156 717.456 309.055 718.676C306.886 719.896 305.09 721.794 303.667 724.369C302.176 726.877 300.719 730.401 299.295 734.942C297.804 739.754 296.279 743.515 294.721 746.226C293.162 748.937 291.332 750.903 289.231 752.123C287.13 753.275 284.521 753.851 281.403 753.851C278.421 753.851 275.71 753.072 273.27 751.513C270.83 749.954 268.932 747.751 267.577 744.905C266.154 742.058 265.442 738.771 265.442 735.043ZM324.508 665.798C327.964 665.798 330.438 665.459 331.929 664.782C333.42 664.036 334.47 662.782 335.08 661.02L336.707 661.63C336.029 663.731 334.945 665.256 333.454 666.205C331.895 667.154 329.557 667.662 326.439 667.73C333.284 671.593 336.707 677.32 336.707 684.911C336.707 689.858 335.284 693.755 332.437 696.602C329.591 699.381 325.795 700.77 321.051 700.77C315.765 700.77 311.664 698.906 308.75 695.178C305.836 691.451 304.379 686.402 304.379 680.031V668.035H298.076C293.331 668.035 289.807 669.085 287.503 671.186C285.131 673.22 283.944 676.676 283.944 681.556C283.944 685.826 285.063 690.671 287.299 696.093L285.368 696.805C283.063 691.248 281.911 686.164 281.911 681.556C281.911 676.066 283.267 672.067 285.978 669.56C288.621 667.052 292.586 665.798 297.872 665.798H324.508ZM334.572 684.911C334.572 680.912 333.657 677.557 331.827 674.846C329.93 672.135 327.185 669.865 323.593 668.035H306.412V679.624C306.412 685.521 307.666 690.129 310.173 693.45C312.681 696.703 316.307 698.33 321.051 698.33C325.253 698.33 328.574 697.144 331.014 694.772C333.386 692.332 334.572 689.045 334.572 684.911ZM281.911 620.221C281.911 615.477 283.301 611.953 286.079 609.648C288.858 607.276 292.891 606.09 298.177 606.09H335.69V608.327H298.38C288.756 608.327 283.944 612.291 283.944 620.221C283.944 624.288 285.029 627.846 287.198 630.896C289.366 633.945 292.518 636.826 296.652 639.537H335.69V641.773H282.928V639.842L293.704 639.639C285.842 634.352 281.911 627.88 281.911 620.221ZM281.911 571.418C281.911 568.3 282.386 565.521 283.335 563.082C284.216 560.574 285.605 558.134 287.503 555.762L289.129 557.083C287.299 559.456 285.978 561.726 285.164 563.895C284.351 565.996 283.944 568.47 283.944 571.316C283.944 575.315 284.961 578.636 286.994 581.279C288.96 583.854 291.603 585.142 294.924 585.142C297.974 585.142 300.346 584.092 302.04 581.991C303.735 579.822 305.294 576.06 306.717 570.706C307.869 566.572 309.055 563.353 310.275 561.048C311.495 558.676 313.054 556.982 314.951 555.965C316.781 554.881 319.153 554.339 322.068 554.339C326.405 554.339 329.93 555.931 332.641 559.117C335.352 562.302 336.707 566.436 336.707 571.519C336.707 575.315 336.131 578.602 334.979 581.381C333.827 584.092 332.166 586.735 329.997 589.31L328.472 587.989C330.573 585.481 332.132 583.007 333.149 580.567C334.098 578.06 334.572 575.044 334.572 571.519C334.572 567.182 333.488 563.624 331.319 560.845C329.082 558.066 325.999 556.677 322.068 556.677C319.492 556.677 317.425 557.151 315.866 558.1C314.24 558.981 312.884 560.472 311.8 562.573C310.715 564.674 309.631 567.724 308.547 571.723C307.056 577.416 305.294 581.482 303.26 583.922C301.227 586.294 298.448 587.48 294.924 587.48C291.129 587.48 288.011 585.955 285.571 582.906C283.131 579.788 281.911 575.959 281.911 571.418Z" fill="black"/>
<path d="M342.687 735.043C342.687 731.113 343.263 727.758 344.415 724.979C345.568 722.2 347.33 719.455 349.702 716.744L351.43 718.269C349.126 720.709 347.465 723.251 346.449 725.894C345.364 728.469 344.822 731.519 344.822 735.043C344.822 739.991 346.11 743.99 348.685 747.04C351.261 750.022 354.582 751.513 358.648 751.513C361.495 751.513 363.833 750.971 365.663 749.886C367.493 748.734 369.085 746.938 370.441 744.498C371.796 742.058 373.152 738.602 374.507 734.129C375.998 729.384 377.557 725.623 379.184 722.844C380.81 720.065 382.844 717.998 385.283 716.643C387.656 715.287 390.705 714.609 394.433 714.609C398.228 714.609 401.617 715.524 404.599 717.354C407.581 719.116 409.886 721.59 411.512 724.776C413.139 727.961 413.952 731.621 413.952 735.755C413.952 740.093 413.241 743.888 411.817 747.141C410.394 750.394 408.327 753.512 405.616 756.494L404.091 754.969C406.599 752.258 408.496 749.446 409.784 746.531C411.072 743.549 411.716 739.991 411.716 735.857C411.716 730.164 410.157 725.589 407.039 722.132C403.922 718.608 399.753 716.846 394.535 716.846C391.146 716.846 388.401 717.456 386.3 718.676C384.131 719.896 382.335 721.794 380.912 724.369C379.421 726.877 377.964 730.401 376.541 734.942C375.05 739.754 373.525 743.515 371.966 746.226C370.407 748.937 368.577 750.903 366.476 752.123C364.375 753.275 361.766 753.851 358.648 753.851C355.666 753.851 352.955 753.072 350.515 751.513C348.075 749.954 346.178 747.751 344.822 744.905C343.399 742.058 342.687 738.771 342.687 735.043ZM401.753 665.798C405.209 665.798 407.683 665.459 409.174 664.782C410.665 664.036 411.716 662.782 412.326 661.02L413.952 661.63C413.274 663.731 412.19 665.256 410.699 666.205C409.14 667.154 406.802 667.662 403.684 667.73C410.53 671.593 413.952 677.32 413.952 684.911C413.952 689.858 412.529 693.755 409.682 696.602C406.836 699.381 403.04 700.77 398.296 700.77C393.01 700.77 388.909 698.906 385.995 695.178C383.081 691.451 381.624 686.402 381.624 680.031V668.035H375.321C370.576 668.035 367.052 669.085 364.748 671.186C362.376 673.22 361.19 676.676 361.19 681.556C361.19 685.826 362.308 690.671 364.544 696.093L362.613 696.805C360.309 691.248 359.156 686.164 359.156 681.556C359.156 676.066 360.512 672.067 363.223 669.56C365.866 667.052 369.831 665.798 375.117 665.798H401.753ZM411.817 684.911C411.817 680.912 410.902 677.557 409.072 674.846C407.175 672.135 404.43 669.865 400.838 668.035H383.657V679.624C383.657 685.521 384.911 690.129 387.418 693.45C389.926 696.703 393.552 698.33 398.296 698.33C402.498 698.33 405.819 697.144 408.259 694.772C410.631 692.332 411.817 689.045 411.817 684.911ZM359.156 620.221C359.156 615.477 360.546 611.953 363.325 609.648C366.103 607.276 370.136 606.09 375.422 606.09H412.936V608.327H375.626C366.002 608.327 361.19 612.291 361.19 620.221C361.19 624.288 362.274 627.846 364.443 630.896C366.612 633.945 369.763 636.826 373.897 639.537H412.936V641.773H360.173V639.842L370.949 639.639C363.087 634.352 359.156 627.88 359.156 620.221ZM359.156 571.418C359.156 568.3 359.631 565.521 360.58 563.082C361.461 560.574 362.85 558.134 364.748 555.762L366.374 557.083C364.544 559.456 363.223 561.726 362.41 563.895C361.596 565.996 361.19 568.47 361.19 571.316C361.19 575.315 362.206 578.636 364.239 581.279C366.205 583.854 368.848 585.142 372.169 585.142C375.219 585.142 377.591 584.092 379.285 581.991C380.98 579.822 382.539 576.06 383.962 570.706C385.114 566.572 386.3 563.353 387.52 561.048C388.74 558.676 390.299 556.982 392.197 555.965C394.026 554.881 396.399 554.339 399.313 554.339C403.65 554.339 407.175 555.931 409.886 559.117C412.597 562.302 413.952 566.436 413.952 571.519C413.952 575.315 413.376 578.602 412.224 581.381C411.072 584.092 409.411 586.735 407.242 589.31L405.718 587.989C407.819 585.481 409.377 583.007 410.394 580.567C411.343 578.06 411.817 575.044 411.817 571.519C411.817 567.182 410.733 563.624 408.564 560.845C406.328 558.066 403.244 556.677 399.313 556.677C396.737 556.677 394.67 557.151 393.111 558.1C391.485 558.981 390.129 560.472 389.045 562.573C387.961 564.674 386.876 567.724 385.792 571.723C384.301 577.416 382.539 581.482 380.505 583.922C378.472 586.294 375.693 587.48 372.169 587.48C368.374 587.48 365.256 585.955 362.816 582.906C360.376 579.788 359.156 575.959 359.156 571.418Z" fill="black"/>
<path d="M421.572 735.043C421.572 731.113 422.148 727.758 423.3 724.979C424.452 722.2 426.214 719.455 428.587 716.744L430.315 718.269C428.01 720.709 426.35 723.251 425.333 725.894C424.249 728.469 423.707 731.519 423.707 735.043C423.707 739.991 424.995 743.99 427.57 747.04C430.145 750.022 433.466 751.513 437.533 751.513C440.379 751.513 442.718 750.971 444.548 749.886C446.377 748.734 447.97 746.938 449.326 744.498C450.681 742.058 452.037 738.602 453.392 734.129C454.883 729.384 456.442 725.623 458.069 722.844C459.695 720.065 461.728 717.998 464.168 716.643C466.54 715.287 469.59 714.609 473.318 714.609C477.113 714.609 480.502 715.524 483.484 717.354C486.466 719.116 488.77 721.59 490.397 724.776C492.024 727.961 492.837 731.621 492.837 735.755C492.837 740.093 492.125 743.888 490.702 747.141C489.279 750.394 487.212 753.512 484.501 756.494L482.976 754.969C485.483 752.258 487.381 749.446 488.669 746.531C489.957 743.549 490.6 739.991 490.6 735.857C490.6 730.164 489.042 725.589 485.924 722.132C482.806 718.608 478.638 716.846 473.419 716.846C470.031 716.846 467.286 717.456 465.185 718.676C463.016 719.896 461.22 721.794 459.797 724.369C458.306 726.877 456.849 730.401 455.425 734.942C453.934 739.754 452.409 743.515 450.851 746.226C449.292 748.937 447.462 750.903 445.361 752.123C443.26 753.275 440.65 753.851 437.533 753.851C434.551 753.851 431.84 753.072 429.4 751.513C426.96 749.954 425.062 747.751 423.707 744.905C422.284 742.058 421.572 738.771 421.572 735.043ZM480.637 665.798C484.094 665.798 486.568 665.459 488.059 664.782C489.55 664.036 490.6 662.782 491.21 661.02L492.837 661.63C492.159 663.731 491.075 665.256 489.584 666.205C488.025 667.154 485.687 667.662 482.569 667.73C489.414 671.593 492.837 677.32 492.837 684.911C492.837 689.858 491.414 693.755 488.567 696.602C485.721 699.381 481.925 700.77 477.181 700.77C471.895 700.77 467.794 698.906 464.88 695.178C461.966 691.451 460.508 686.402 460.508 680.031V668.035H454.205C449.461 668.035 445.937 669.085 443.633 671.186C441.26 673.22 440.074 676.676 440.074 681.556C440.074 685.826 441.193 690.671 443.429 696.093L441.498 696.805C439.193 691.248 438.041 686.164 438.041 681.556C438.041 676.066 439.397 672.067 442.108 669.56C444.751 667.052 448.716 665.798 454.002 665.798H480.637ZM490.702 684.911C490.702 680.912 489.787 677.557 487.957 674.846C486.059 672.135 483.315 669.865 479.723 668.035H462.542V679.624C462.542 685.521 463.795 690.129 466.303 693.45C468.811 696.703 472.437 698.33 477.181 698.33C481.383 698.33 484.704 697.144 487.144 694.772C489.516 692.332 490.702 689.045 490.702 684.911ZM438.041 620.221C438.041 615.477 439.431 611.953 442.209 609.648C444.988 607.276 449.021 606.09 454.307 606.09H491.82V608.327H454.51C444.886 608.327 440.074 612.291 440.074 620.221C440.074 624.288 441.159 627.846 443.328 630.896C445.496 633.945 448.648 636.826 452.782 639.537H491.82V641.773H439.058V639.842L449.834 639.639C441.972 634.352 438.041 627.88 438.041 620.221ZM438.041 571.418C438.041 568.3 438.516 565.521 439.464 563.082C440.345 560.574 441.735 558.134 443.633 555.762L445.259 557.083C443.429 559.456 442.108 561.726 441.294 563.895C440.481 565.996 440.074 568.47 440.074 571.316C440.074 575.315 441.091 578.636 443.124 581.279C445.09 583.854 447.733 585.142 451.054 585.142C454.104 585.142 456.476 584.092 458.17 581.991C459.865 579.822 461.423 576.06 462.847 570.706C463.999 566.572 465.185 563.353 466.405 561.048C467.625 558.676 469.184 556.982 471.081 555.965C472.911 554.881 475.283 554.339 478.198 554.339C482.535 554.339 486.059 555.931 488.77 559.117C491.481 562.302 492.837 566.436 492.837 571.519C492.837 575.315 492.261 578.602 491.109 581.381C489.957 584.092 488.296 586.735 486.127 589.31L484.602 587.989C486.703 585.481 488.262 583.007 489.279 580.567C490.228 578.06 490.702 575.044 490.702 571.519C490.702 567.182 489.618 563.624 487.449 560.845C485.212 558.066 482.129 556.677 478.198 556.677C475.622 556.677 473.555 557.151 471.996 558.1C470.37 558.981 469.014 560.472 467.93 562.573C466.845 564.674 465.761 567.724 464.677 571.723C463.186 577.416 461.423 581.482 459.39 583.922C457.357 586.294 454.578 587.48 451.054 587.48C447.258 587.48 444.141 585.955 441.701 582.906C439.261 579.788 438.041 575.959 438.041 571.418Z" fill="black"/>
<path d="M498.521 735.043C498.521 731.113 499.097 727.758 500.249 724.979C501.402 722.2 503.164 719.455 505.536 716.744L507.264 718.269C504.96 720.709 503.299 723.251 502.283 725.894C501.198 728.469 500.656 731.519 500.656 735.043C500.656 739.991 501.944 743.99 504.519 747.04C507.095 750.022 510.416 751.513 514.482 751.513C517.329 751.513 519.667 750.971 521.497 749.886C523.327 748.734 524.919 746.938 526.275 744.498C527.63 742.058 528.986 738.602 530.341 734.129C531.832 729.384 533.391 725.623 535.018 722.844C536.644 720.065 538.678 717.998 541.117 716.643C543.49 715.287 546.539 714.609 550.267 714.609C554.062 714.609 557.451 715.524 560.433 717.354C563.415 719.116 565.72 721.59 567.346 724.776C568.973 727.961 569.786 731.621 569.786 735.755C569.786 740.093 569.075 743.888 567.651 747.141C566.228 750.394 564.161 753.512 561.45 756.494L559.925 754.969C562.433 752.258 564.33 749.446 565.618 746.531C566.906 743.549 567.55 739.991 567.55 735.857C567.55 730.164 565.991 725.589 562.873 722.132C559.756 718.608 555.587 716.846 550.369 716.846C546.98 716.846 544.235 717.456 542.134 718.676C539.965 719.896 538.169 721.794 536.746 724.369C535.255 726.877 533.798 730.401 532.375 734.942C530.884 739.754 529.359 743.515 527.8 746.226C526.241 748.937 524.411 750.903 522.31 752.123C520.209 753.275 517.6 753.851 514.482 753.851C511.5 753.851 508.789 753.072 506.349 751.513C503.909 749.954 502.012 747.751 500.656 744.905C499.233 742.058 498.521 738.771 498.521 735.043ZM557.587 665.798C561.043 665.798 563.517 665.459 565.008 664.782C566.499 664.036 567.55 662.782 568.16 661.02L569.786 661.63C569.108 663.731 568.024 665.256 566.533 666.205C564.974 667.154 562.636 667.662 559.518 667.73C566.364 671.593 569.786 677.32 569.786 684.911C569.786 689.858 568.363 693.755 565.516 696.602C562.67 699.381 558.874 700.77 554.13 700.77C548.844 700.77 544.743 698.906 541.829 695.178C538.915 691.451 537.458 686.402 537.458 680.031V668.035H531.155C526.41 668.035 522.886 669.085 520.582 671.186C518.21 673.22 517.024 676.676 517.024 681.556C517.024 685.826 518.142 690.671 520.378 696.093L518.447 696.805C516.143 691.248 514.99 686.164 514.99 681.556C514.99 676.066 516.346 672.067 519.057 669.56C521.7 667.052 525.665 665.798 530.951 665.798H557.587ZM567.651 684.911C567.651 680.912 566.736 677.557 564.906 674.846C563.009 672.135 560.264 669.865 556.672 668.035H539.491V679.624C539.491 685.521 540.745 690.129 543.252 693.45C545.76 696.703 549.386 698.33 554.13 698.33C558.332 698.33 561.653 697.144 564.093 694.772C566.465 692.332 567.651 689.045 567.651 684.911ZM514.99 620.221C514.99 615.477 516.38 611.953 519.158 609.648C521.937 607.276 525.97 606.09 531.256 606.09H568.77V608.327H531.46C521.836 608.327 517.024 612.291 517.024 620.221C517.024 624.288 518.108 627.846 520.277 630.896C522.446 633.945 525.597 636.826 529.731 639.537H568.77V641.773H516.007V639.842L526.783 639.639C518.921 634.352 514.99 627.88 514.99 620.221ZM514.99 571.418C514.99 568.3 515.465 565.521 516.414 563.082C517.295 560.574 518.684 558.134 520.582 555.762L522.208 557.083C520.378 559.456 519.057 561.726 518.244 563.895C517.43 565.996 517.024 568.47 517.024 571.316C517.024 575.315 518.04 578.636 520.073 581.279C522.039 583.854 524.682 585.142 528.003 585.142C531.053 585.142 533.425 584.092 535.119 581.991C536.814 579.822 538.373 576.06 539.796 570.706C540.948 566.572 542.134 563.353 543.354 561.048C544.574 558.676 546.133 556.982 548.03 555.965C549.86 554.881 552.233 554.339 555.147 554.339C559.484 554.339 563.009 555.931 565.72 559.117C568.431 562.302 569.786 566.436 569.786 571.519C569.786 575.315 569.21 578.602 568.058 581.381C566.906 584.092 565.245 586.735 563.076 589.31L561.552 587.989C563.653 585.481 565.211 583.007 566.228 580.567C567.177 578.06 567.651 575.044 567.651 571.519C567.651 567.182 566.567 563.624 564.398 560.845C562.161 558.066 559.078 556.677 555.147 556.677C552.571 556.677 550.504 557.151 548.945 558.1C547.319 558.981 545.963 560.472 544.879 562.573C543.795 564.674 542.71 567.724 541.626 571.723C540.135 577.416 538.373 581.482 536.339 583.922C534.306 586.294 531.527 587.48 528.003 587.48C524.208 587.48 521.09 585.955 518.65 582.906C516.21 579.788 514.99 575.959 514.99 571.418Z" fill="black"/>
<path d="M128.698 10.0112C129.688 10.0112 130.463 10.3595 131.025 11.0562C131.588 11.7449 131.869 12.8058 131.869 14.2387C131.869 15.6321 131.576 16.7048 130.99 17.4569C130.404 18.2011 129.589 18.5731 128.544 18.5731C128.021 18.5731 127.566 18.494 127.178 18.3356C126.79 18.1694 126.442 17.9398 126.133 17.6469L126.869 16.7444C127.122 16.9423 127.368 17.0927 127.605 17.1956C127.843 17.2906 128.128 17.3381 128.46 17.3381C129.023 17.3381 129.45 17.1323 129.743 16.7206C130.044 16.301 130.21 15.6479 130.242 14.7612H127.285V13.5975H130.242C130.17 12.0062 129.628 11.2106 128.615 11.2106C128.29 11.2106 128.005 11.2581 127.76 11.3531C127.514 11.4401 127.257 11.5906 126.988 11.8043L126.216 10.9018C126.572 10.6089 126.944 10.3872 127.332 10.2368C127.72 10.0864 128.175 10.0112 128.698 10.0112ZM136.536 11.9349C137.328 11.9349 137.914 12.2239 138.294 12.8018C138.674 13.3798 138.864 14.1912 138.864 15.2362C138.864 15.8854 138.765 16.4633 138.567 16.97C138.377 17.4688 138.092 17.8606 137.712 18.1456C137.34 18.4306 136.896 18.5731 136.382 18.5731C135.717 18.5731 135.19 18.3436 134.802 17.8844V20.8175L133.282 20.9838V12.1131H134.612L134.696 12.885C134.941 12.5683 135.222 12.3308 135.539 12.1724C135.855 12.0141 136.188 11.9349 136.536 11.9349ZM135.954 17.4094C136.833 17.4094 137.273 16.689 137.273 15.2481C137.273 14.4802 137.174 13.926 136.976 13.5856C136.778 13.2452 136.481 13.075 136.085 13.075C135.832 13.075 135.594 13.1541 135.372 13.3125C135.151 13.4629 134.961 13.6687 134.802 13.93V16.7562C135.095 17.1917 135.479 17.4094 135.954 17.4094ZM145.582 18.395H144.121V15.8775C144.121 15.4183 144.141 14.9869 144.18 14.5831C144.22 14.1714 144.263 13.8627 144.311 13.6568L141.972 18.395H140.345V12.1131H141.817V14.6306C141.817 15.066 141.793 15.4975 141.746 15.925C141.706 16.3525 141.663 16.6573 141.615 16.8394L143.931 12.1131H145.582V18.395ZM152.608 12.1131L150.839 15.0225L152.798 18.395H151.124L149.592 15.6044H148.915V18.395H147.395V12.1131H148.915V14.595H149.628L151.088 12.1131H152.608ZM165.709 10.1893V18.395H156.743V10.1893H158.287V17.1481H160.484V10.1893H161.956V17.1481H164.165V10.1893H165.709ZM171.183 18.395V13.2768H169.093V18.395H167.573V12.1131H172.703V18.395H171.183ZM179.756 18.395H178.295V15.8775C178.295 15.4183 178.315 14.9869 178.355 14.5831C178.394 14.1714 178.438 13.8627 178.485 13.6568L176.146 18.395H174.519V12.1131H175.992V14.6306C175.992 15.066 175.968 15.4975 175.92 15.925C175.881 16.3525 175.837 16.6573 175.79 16.8394L178.105 12.1131H179.756V18.395ZM186.783 12.1131L185.013 15.0225L186.973 18.395H185.298L183.767 15.6044H183.09V18.395H181.57V12.1131H183.09V14.595H183.802L185.263 12.1131H186.783ZM192.939 15.1056C192.939 15.1848 192.927 15.3906 192.903 15.7231H188.961C189.008 16.3327 189.167 16.7681 189.436 17.0294C189.705 17.2906 190.061 17.4213 190.505 17.4213C190.782 17.4213 191.043 17.3777 191.288 17.2906C191.534 17.1956 191.795 17.0531 192.072 16.8631L192.702 17.73C192.005 18.2921 191.229 18.5731 190.374 18.5731C189.416 18.5731 188.676 18.2802 188.153 17.6944C187.639 17.1085 187.382 16.309 187.382 15.2956C187.382 14.6543 187.492 14.0804 187.714 13.5737C187.936 13.0591 188.256 12.6593 188.676 12.3743C189.096 12.0814 189.594 11.9349 190.172 11.9349C191.051 11.9349 191.732 12.216 192.215 12.7781C192.698 13.3323 192.939 14.1081 192.939 15.1056ZM191.431 14.6662C191.431 13.5658 191.023 13.0156 190.208 13.0156C189.836 13.0156 189.543 13.1541 189.329 13.4312C189.123 13.7004 189.001 14.1358 188.961 14.7375H191.431V14.6662ZM197.545 11.9349C198.336 11.9349 198.922 12.2239 199.302 12.8018C199.682 13.3798 199.872 14.1912 199.872 15.2362C199.872 15.8854 199.773 16.4633 199.575 16.97C199.385 17.4688 199.1 17.8606 198.72 18.1456C198.348 18.4306 197.905 18.5731 197.39 18.5731C196.725 18.5731 196.199 18.3436 195.811 17.8844V20.8175L194.291 20.9838V12.1131H195.621L195.704 12.885C195.949 12.5683 196.23 12.3308 196.547 12.1724C196.864 12.0141 197.196 11.9349 197.545 11.9349ZM196.963 17.4094C197.841 17.4094 198.281 16.689 198.281 15.2481C198.281 14.4802 198.182 13.926 197.984 13.5856C197.786 13.2452 197.489 13.075 197.093 13.075C196.84 13.075 196.603 13.1541 196.381 13.3125C196.159 13.4629 195.969 13.6687 195.811 13.93V16.7562C196.104 17.1917 196.488 17.4094 196.963 17.4094ZM207.896 18.395H206.447L206.246 15.8181C206.214 15.4381 206.198 15.0264 206.198 14.5831C206.198 14.3931 206.206 14.0289 206.222 13.4906L205.022 17.73H203.704L202.552 13.4906C202.576 13.926 202.588 14.3496 202.588 14.7612C202.588 15.0066 202.58 15.3589 202.564 15.8181L202.398 18.395H200.949L201.496 12.1131H203.348L204.369 16.3644L205.474 12.1131H207.338L207.896 18.395ZM213.951 16.7325C213.951 16.9779 213.987 17.16 214.058 17.2788C214.137 17.3896 214.26 17.4767 214.426 17.54L214.106 18.5494C213.749 18.5177 213.457 18.4306 213.227 18.2881C213.005 18.1456 212.835 17.9279 212.716 17.635C212.503 17.9517 212.233 18.1892 211.909 18.3475C211.592 18.4979 211.236 18.5731 210.84 18.5731C210.215 18.5731 209.72 18.395 209.356 18.0388C208.991 17.6825 208.809 17.2154 208.809 16.6375C208.809 15.9567 209.055 15.4381 209.546 15.0819C210.044 14.7177 210.753 14.5356 211.671 14.5356H212.455V14.1793C212.455 13.7756 212.36 13.4945 212.17 13.3362C211.988 13.17 211.691 13.0868 211.279 13.0868C210.82 13.0868 210.266 13.1977 209.617 13.4193L209.261 12.3862C210.044 12.0854 210.804 11.9349 211.541 11.9349C213.148 11.9349 213.951 12.6554 213.951 14.0962V16.7325ZM211.244 17.4688C211.758 17.4688 212.162 17.2115 212.455 16.6969V15.4262H211.826C210.844 15.4262 210.353 15.7904 210.353 16.5187C210.353 16.8196 210.428 17.0531 210.579 17.2194C210.729 17.3856 210.951 17.4688 211.244 17.4688ZM219.425 18.395V15.7706H217.299V18.395H215.779V12.1131H217.299V14.6187H219.425V12.1131H220.945V18.395H219.425Z" fill="black"/>
<path d="M353.94 10.6684C354.676 10.6684 355.313 10.8346 355.852 11.1672C356.39 11.4997 356.802 11.9865 357.087 12.6278C357.38 13.2691 357.526 14.0409 357.526 14.9434C357.526 15.838 357.38 16.606 357.087 17.2472C356.794 17.8885 356.378 18.3793 355.84 18.7197C355.302 19.0602 354.668 19.2304 353.94 19.2304C353.204 19.2304 352.566 19.0641 352.028 18.7316C351.49 18.3991 351.074 17.9122 350.781 17.271C350.488 16.6297 350.342 15.8578 350.342 14.9553C350.342 14.0686 350.488 13.3047 350.781 12.6634C351.074 12.0142 351.49 11.5194 352.028 11.179C352.574 10.8386 353.212 10.6684 353.94 10.6684ZM353.94 11.8678C353.307 11.8678 352.824 12.1172 352.491 12.6159C352.159 13.1068 351.992 13.8866 351.992 14.9553C351.992 17.0058 352.642 18.031 353.94 18.031C354.573 18.031 355.052 17.7856 355.377 17.2947C355.709 16.8039 355.876 16.0201 355.876 14.9434C355.876 13.8747 355.709 13.0949 355.377 12.604C355.052 12.1132 354.573 11.8678 353.94 11.8678ZM369.43 12.7703V19.0522H361.901V12.7703H363.362V17.9004H364.989V12.7703H366.342V17.9004H367.969V12.7703H369.43ZM374.502 12.5922C375.293 12.5922 375.879 12.8811 376.259 13.4591C376.639 14.037 376.829 14.8484 376.829 15.8935C376.829 16.5426 376.73 17.1206 376.532 17.6272C376.342 18.126 376.057 18.5179 375.677 18.8029C375.305 19.0879 374.862 19.2304 374.347 19.2304C373.682 19.2304 373.156 19.0008 372.768 18.5416V21.4748L371.248 21.641V12.7703H372.578L372.661 13.5422C372.906 13.2255 373.187 12.988 373.504 12.8297C373.821 12.6713 374.153 12.5922 374.502 12.5922ZM373.92 18.0666C374.798 18.0666 375.238 17.3462 375.238 15.9053C375.238 15.1374 375.139 14.5832 374.941 14.2428C374.743 13.9024 374.446 13.7322 374.05 13.7322C373.797 13.7322 373.559 13.8114 373.338 13.9697C373.116 14.1201 372.926 14.3259 372.768 14.5872V17.4135C373.061 17.8489 373.445 18.0666 373.92 18.0666ZM383.547 19.0522H382.086V16.5347C382.086 16.0755 382.106 15.6441 382.146 15.2403C382.185 14.8287 382.229 14.5199 382.276 14.3141L379.937 19.0522H378.31V12.7703H379.782V15.2878C379.782 15.7232 379.759 16.1547 379.711 16.5822C379.672 17.0097 379.628 17.3145 379.581 17.4966L381.896 12.7703H383.547V19.0522ZM391.547 12.5922C392.3 12.5922 392.846 12.8772 393.186 13.4472C393.527 14.0172 393.697 14.8366 393.697 15.9053C393.697 16.5783 393.606 17.1641 393.424 17.6629C393.25 18.1616 392.996 18.5495 392.664 18.8266C392.339 19.0958 391.955 19.2304 391.512 19.2304C390.918 19.2304 390.439 18.981 390.075 18.4822V21.4748L388.638 21.641V18.506C388.456 18.7356 388.238 18.9137 387.985 19.0404C387.732 19.167 387.455 19.2304 387.154 19.2304C386.726 19.2304 386.35 19.0958 386.026 18.8266C385.701 18.5495 385.452 18.1616 385.277 17.6629C385.103 17.1562 385.016 16.5703 385.016 15.9053C385.016 14.8524 385.19 14.037 385.539 13.4591C385.895 12.8811 386.441 12.5922 387.177 12.5922C387.779 12.5922 388.266 12.8099 388.638 13.2453V10.0865L390.075 10.2528V13.2691C390.447 12.8178 390.938 12.5922 391.547 12.5922ZM387.581 18.0904C387.977 18.0904 388.329 17.8766 388.638 17.4491V14.3259C388.337 13.9222 387.981 13.7203 387.569 13.7203C387.245 13.7203 386.999 13.8984 386.833 14.2547C386.675 14.603 386.596 15.1532 386.596 15.9053C386.596 17.362 386.924 18.0904 387.581 18.0904ZM391.12 18.0904C391.793 18.0904 392.129 17.362 392.129 15.9053C392.129 15.1453 392.046 14.5912 391.88 14.2428C391.722 13.8945 391.472 13.7203 391.132 13.7203C390.736 13.7203 390.384 13.9301 390.075 14.3497V17.4372C390.217 17.6589 390.372 17.8251 390.538 17.936C390.704 18.0389 390.898 18.0904 391.12 18.0904ZM399.501 12.7703L399.311 13.9341H397.47V19.0522H395.95V13.9341H394.002V12.7703H399.501ZM405.219 15.7628C405.219 15.842 405.207 16.0478 405.183 16.3803H401.24C401.288 16.9899 401.446 17.4254 401.715 17.6866C401.985 17.9479 402.341 18.0785 402.784 18.0785C403.061 18.0785 403.323 18.0349 403.568 17.9479C403.813 17.8529 404.075 17.7104 404.352 17.5204L404.981 18.3872C404.284 18.9493 403.509 19.2304 402.654 19.2304C401.696 19.2304 400.955 18.9375 400.433 18.3516C399.918 17.7658 399.661 16.9662 399.661 15.9528C399.661 15.3116 399.772 14.7376 399.994 14.2309C400.215 13.7163 400.536 13.3166 400.955 13.0315C401.375 12.7386 401.874 12.5922 402.452 12.5922C403.33 12.5922 404.011 12.8732 404.494 13.4353C404.977 13.9895 405.219 14.7653 405.219 15.7628ZM403.71 15.3235C403.71 14.223 403.303 13.6728 402.487 13.6728C402.115 13.6728 401.822 13.8114 401.609 14.0884C401.403 14.3576 401.28 14.793 401.24 15.3947H403.71V15.3235Z" fill="black"/>
</svg>
