<svg width="511" height="513" viewBox="0 0 511 513" fill="none" xmlns="http://www.w3.org/2000/svg">
<path fill-rule="evenodd" clip-rule="evenodd" d="M148.491 296.981C66.4815 296.981 -3.58473e-06 230.5 0 148.491C3.58473e-06 66.4815 66.4815 -3.58473e-06 148.491 0C230.5 3.58473e-06 296.981 66.4815 296.981 148.491C296.981 230.5 230.5 296.981 148.491 296.981ZM295.245 309.315C292.49 386.41 229.121 448.065 151.353 448.065C73.5841 448.065 10.2156 386.41 7.46007 309.314L295.245 309.315ZM151.351 512.021C106.874 512.021 67.1069 491.855 40.6949 460.167H262.007C235.595 491.855 195.828 512.021 151.351 512.021Z" fill="#FF5E06"/>
<path fill-rule="evenodd" clip-rule="evenodd" d="M308 287.785L308 -6.06497e-06C385.096 2.75558 446.75 66.124 446.75 143.893C446.75 221.661 385.096 285.03 308 287.785Z" fill="#FF5E06"/>
<path fill-rule="evenodd" clip-rule="evenodd" d="M458.852 254.55C490.539 228.138 510.706 188.371 510.706 143.894C510.706 99.4173 490.539 59.6503 458.852 33.2383L458.852 254.55Z" fill="#FF5E06"/>
<path d="M255.026 169C286.017 169 310.035 175.53 327.08 188.591C344.346 201.43 352.979 220.356 352.979 245.37C352.979 271.491 344.678 291.413 328.076 305.138C311.474 318.641 289.116 325.392 261.003 325.392H237.428V399.77H176V169H255.026ZM255.358 281.563C266.869 281.563 275.502 278.685 281.258 272.93C287.234 267.174 290.223 258.098 290.223 245.702C290.223 223.344 278.159 212.166 254.03 212.166H237.428V281.563H255.358Z" fill="black"/>
</svg>
