<svg width="739" height="425" viewBox="0 0 739 425" fill="none" xmlns="http://www.w3.org/2000/svg">
<rect x="0.945512" y="0.945512" width="736.545" height="422.812" rx="36.0448" fill="#D5D5D5" stroke="black" stroke-width="1.89102"/>
<mask id="path-2-inside-1_240:686" fill="white">
<path fill-rule="evenodd" clip-rule="evenodd" d="M366.705 345.066C347.705 337.888 326.593 334.299 303.371 334.299C336.305 316.988 361.216 293.343 378.105 263.365C394.994 232.965 403.439 192.22 403.439 141.13C403.439 92.9962 395.628 52.0401 380.005 18.2619C377.134 11.8813 374.037 5.79448 370.713 0.00146484L302.896 0.00146496C327.28 29.1417 339.471 76.1846 339.471 141.13C339.471 258.51 299.36 317.199 219.136 317.199C181.558 317.199 152.002 303.055 130.469 274.765C109.357 246.476 98.8015 202.142 98.8015 141.764C98.8015 80.9627 109.357 36.2066 130.469 7.49509C132.393 4.87793 134.388 2.38006 136.452 0.00146507L68.1112 0.00146492C64.3571 6.36954 60.8648 13.0897 57.6343 20.1619C42.4341 54.3624 34.834 94.8962 34.834 141.764C34.834 189.475 42.4341 230.22 57.6343 263.998C73.2567 297.354 94.7903 322.688 122.235 339.999C149.68 356.889 181.558 365.333 217.87 365.333C256.715 365.333 287.537 369.555 310.338 378C333.138 386.445 357.205 401.856 382.539 424.234L421.806 373.567C404.072 361.322 385.705 351.822 366.705 345.066ZM659.081 69.5626V25.2287H433.612V74.6293H592.58L419.045 315.299V359H654.015L660.981 310.232H484.912L659.081 69.5626Z"/>
</mask>
<path fill-rule="evenodd" clip-rule="evenodd" d="M366.705 345.066C347.705 337.888 326.593 334.299 303.371 334.299C336.305 316.988 361.216 293.343 378.105 263.365C394.994 232.965 403.439 192.22 403.439 141.13C403.439 92.9962 395.628 52.0401 380.005 18.2619C377.134 11.8813 374.037 5.79448 370.713 0.00146484L302.896 0.00146496C327.28 29.1417 339.471 76.1846 339.471 141.13C339.471 258.51 299.36 317.199 219.136 317.199C181.558 317.199 152.002 303.055 130.469 274.765C109.357 246.476 98.8015 202.142 98.8015 141.764C98.8015 80.9627 109.357 36.2066 130.469 7.49509C132.393 4.87793 134.388 2.38006 136.452 0.00146507L68.1112 0.00146492C64.3571 6.36954 60.8648 13.0897 57.6343 20.1619C42.4341 54.3624 34.834 94.8962 34.834 141.764C34.834 189.475 42.4341 230.22 57.6343 263.998C73.2567 297.354 94.7903 322.688 122.235 339.999C149.68 356.889 181.558 365.333 217.87 365.333C256.715 365.333 287.537 369.555 310.338 378C333.138 386.445 357.205 401.856 382.539 424.234L421.806 373.567C404.072 361.322 385.705 351.822 366.705 345.066ZM659.081 69.5626V25.2287H433.612V74.6293H592.58L419.045 315.299V359H654.015L660.981 310.232H484.912L659.081 69.5626Z" fill="black"/>
<path d="M303.371 334.299L302.491 332.626L303.371 336.19V334.299ZM366.705 345.066L366.037 346.835L366.054 346.842L366.072 346.848L366.705 345.066ZM378.105 263.365L379.753 264.293L379.758 264.283L378.105 263.365ZM380.005 18.2619L378.281 19.0379L378.285 19.0468L378.289 19.0557L380.005 18.2619ZM370.713 0.00146484L372.354 -0.939508L371.809 -1.88956H370.713V0.00146484ZM302.896 0.00146496V-1.88956H298.848L301.446 1.21501L302.896 0.00146496ZM130.469 274.765L128.953 275.896L128.958 275.904L128.964 275.911L130.469 274.765ZM130.469 7.49509L131.992 8.61532V8.61532L130.469 7.49509ZM136.452 0.00146507L137.88 1.24107L140.598 -1.88956H136.452V0.00146507ZM68.1112 0.00146492V-1.88956H67.0309L66.4822 -0.958877L68.1112 0.00146492ZM57.6343 20.1619L55.9142 19.3762L55.9102 19.385L55.9062 19.3939L57.6343 20.1619ZM57.6343 263.998L55.9098 264.774L55.9157 264.788L55.9218 264.801L57.6343 263.998ZM122.235 339.999L121.226 341.599L121.235 341.604L121.244 341.61L122.235 339.999ZM310.338 378L309.681 379.773L310.338 378ZM382.539 424.234L381.287 425.651L382.798 426.986L384.033 425.392L382.539 424.234ZM421.806 373.567L423.3 374.725L424.524 373.146L422.88 372.01L421.806 373.567ZM659.081 25.2287H660.972V23.3376H659.081V25.2287ZM659.081 69.5626L660.613 70.6712L660.972 70.175V69.5626H659.081ZM433.612 25.2287V23.3376H431.721V25.2287H433.612ZM433.612 74.6293H431.721V76.5203H433.612V74.6293ZM592.58 74.6293L594.114 75.7353L596.275 72.7383H592.58V74.6293ZM419.045 315.299L417.511 314.193L417.154 314.688V315.299H419.045ZM419.045 359H417.154V360.891H419.045V359ZM654.015 359V360.891H655.655L655.887 359.267L654.015 359ZM660.981 310.232L662.853 310.5L663.162 308.341H660.981V310.232ZM484.912 310.232L483.38 309.124L481.21 312.123H484.912V310.232ZM303.371 336.19C326.397 336.19 347.278 339.749 366.037 346.835L367.373 343.297C348.131 336.028 326.789 332.408 303.371 332.408V336.19ZM376.458 262.437C359.762 292.072 335.13 315.469 302.491 332.626L304.251 335.973C337.48 318.507 362.67 294.615 379.753 264.293L376.458 262.437ZM401.548 141.13C401.548 192.039 393.129 232.429 376.452 262.447L379.758 264.283C396.86 233.501 405.33 192.401 405.33 141.13H401.548ZM378.289 19.0557C393.768 52.5234 401.548 93.1931 401.548 141.13H405.33C405.33 92.7994 397.488 51.5568 381.722 17.4681L378.289 19.0557ZM369.073 0.942438C372.364 6.67941 375.434 12.711 378.281 19.0379L381.73 17.4859C378.834 11.0516 375.709 4.90956 372.354 -0.939508L369.073 0.942438ZM302.896 1.89249L370.713 1.89249V-1.88956L302.896 -1.88956V1.89249ZM341.362 141.13C341.362 76.028 329.156 28.4377 304.346 -1.21208L301.446 1.21501C325.403 29.8456 337.58 76.3412 337.58 141.13H341.362ZM219.136 319.09C259.779 319.09 290.491 304.182 310.949 274.249C331.318 244.445 341.362 199.976 341.362 141.13H337.58C337.58 199.663 327.568 243.229 307.826 272.115C288.173 300.871 258.717 315.308 219.136 315.308V319.09ZM128.964 275.911C150.878 304.7 181.007 319.09 219.136 319.09V315.308C182.109 315.308 153.126 301.409 131.973 273.62L128.964 275.911ZM96.9105 141.764C96.9105 202.289 107.478 247.12 128.953 275.896L131.984 273.634C111.236 245.832 100.693 201.995 100.693 141.764H96.9105ZM128.945 6.37487C107.478 35.5697 96.9105 80.8155 96.9105 141.764H100.693C100.693 81.1099 111.236 36.8435 131.992 8.61532L128.945 6.37487ZM135.024 -1.23814C132.925 1.18012 130.899 3.71793 128.945 6.37487L131.992 8.61532C133.887 6.03794 135.85 3.57999 137.88 1.24107L135.024 -1.23814ZM68.1112 1.89249L136.452 1.89249V-1.88956L68.1112 -1.88956V1.89249ZM59.3544 20.9476C62.559 13.9321 66.0212 7.27047 69.7403 0.961807L66.4822 -0.958877C62.6931 5.46862 59.1706 12.2473 55.9142 19.3762L59.3544 20.9476ZM36.725 141.764C36.725 95.0961 44.2931 54.8358 59.3623 20.9299L55.9062 19.3939C40.5751 53.889 32.943 94.6963 32.943 141.764H36.725ZM59.3588 263.222C44.2951 229.748 36.725 189.282 36.725 141.764H32.943C32.943 189.669 40.573 230.693 55.9098 264.774L59.3588 263.222ZM123.244 338.4C96.1451 321.307 74.8371 296.27 59.3468 263.196L55.9218 264.801C71.6763 298.439 93.4356 324.069 121.226 341.599L123.244 338.4ZM217.87 363.442C181.863 363.442 150.336 355.072 123.226 338.389L121.244 341.61C149.023 358.705 181.254 367.224 217.87 367.224V363.442ZM310.994 376.227C287.896 367.672 256.821 363.442 217.87 363.442V367.224C256.608 367.224 287.178 371.439 309.681 379.773L310.994 376.227ZM383.79 422.817C358.345 400.34 334.081 384.777 310.994 376.227L309.681 379.773C332.195 388.112 356.064 403.372 381.287 425.651L383.79 422.817ZM420.311 372.408L381.044 423.076L384.033 425.392L423.3 374.725L420.311 372.408ZM366.072 346.848C384.905 353.544 403.125 362.966 420.731 375.123L422.88 372.01C405.02 359.678 386.505 350.099 367.339 343.284L366.072 346.848ZM657.19 25.2287V69.5626H660.972V25.2287H657.19ZM433.612 27.1197H659.081V23.3376H433.612V27.1197ZM435.503 74.6293V25.2287H431.721V74.6293H435.503ZM592.58 72.7383H433.612V76.5203H592.58V72.7383ZM420.579 316.405L594.114 75.7353L591.047 73.5233L417.511 314.193L420.579 316.405ZM420.936 359V315.299H417.154V359H420.936ZM654.015 357.109H419.045V360.891H654.015V357.109ZM659.109 309.965L652.143 358.732L655.887 359.267L662.853 310.5L659.109 309.965ZM484.912 312.123H660.981V308.341H484.912V312.123ZM657.549 68.4539L483.38 309.124L486.444 311.341L660.613 70.6712L657.549 68.4539Z" fill="black" mask="url(#path-2-inside-1_240:686)"/>
</svg>
