<svg width="354" height="262" viewBox="0 0 354 262" fill="none" xmlns="http://www.w3.org/2000/svg">
<rect x="1.10679" y="1.35044" width="330.986" height="260.02" fill="#D5D5D5" stroke="black" stroke-width="1.13546"/>
<path d="M81.8974 92.1481C93.8917 92.1481 103.585 95.7313 110.978 102.898L100.681 115.005C95.4004 110.781 89.7804 108.669 83.821 108.669C81.0299 108.669 78.9177 109.159 77.4844 110.14C76.0511 111.12 75.3345 112.516 75.3345 114.326C75.3345 115.684 75.7117 116.816 76.466 117.721C77.2958 118.551 78.6159 119.343 80.4264 120.097C82.3123 120.851 85.3297 121.908 89.4787 123.265C97.7766 125.906 103.736 129.225 107.357 133.223C111.053 137.221 112.901 142.69 112.901 149.63C112.901 154.684 111.544 159.173 108.828 163.095C106.188 166.943 102.378 169.96 97.3994 172.148C92.4207 174.335 86.5367 175.429 79.7475 175.429C72.8074 175.429 66.6971 174.335 61.4166 172.148C56.1361 169.96 51.6854 167.094 48.0645 163.548L59.493 150.988C65.4524 156.118 71.9021 158.682 78.8422 158.682C82.086 158.682 84.5376 158.041 86.1972 156.759C87.8568 155.401 88.6866 153.666 88.6866 151.554C88.6866 149.97 88.3094 148.65 87.5551 147.593C86.8761 146.537 85.6315 145.557 83.821 144.651C82.0105 143.746 79.3703 142.766 75.9002 141.709C66.7725 138.843 60.3982 135.411 56.7773 131.412C53.1564 127.339 51.3459 122.285 51.3459 116.25C51.3459 111.347 52.666 107.084 55.3063 103.464C57.9465 99.8426 61.5675 97.0515 66.169 95.0901C70.846 93.1288 76.0888 92.1481 81.8974 92.1481ZM171.616 153.591C171.616 155.703 171.88 157.287 172.408 158.343C172.936 159.324 173.879 160.078 175.237 160.606L170.711 174.977C166.637 174.675 163.318 173.92 160.753 172.714C158.188 171.431 156.076 169.394 154.416 166.603C150.494 172.487 144.421 175.429 136.199 175.429C130.239 175.429 125.411 173.656 121.715 170.111C118.094 166.49 116.284 161.851 116.284 156.193C116.284 149.479 118.773 144.35 123.752 140.804C128.731 137.259 135.972 135.486 145.477 135.486H149.777V134.015C149.777 130.998 149.174 128.961 147.967 127.905C146.76 126.849 144.459 126.321 141.064 126.321C139.254 126.321 136.915 126.622 134.049 127.226C131.258 127.754 128.391 128.508 125.449 129.489L120.584 115.231C124.28 113.723 128.278 112.554 132.578 111.724C136.953 110.894 140.913 110.479 144.459 110.479C153.964 110.479 160.866 112.327 165.166 116.024C169.466 119.644 171.616 125.227 171.616 132.77V153.591ZM143.101 159.701C144.459 159.701 145.704 159.361 146.835 158.682C148.042 158.004 149.023 157.136 149.777 156.08V147.141H147.401C144.233 147.141 141.894 147.707 140.385 148.838C138.877 149.97 138.122 151.705 138.122 154.043C138.122 155.778 138.575 157.174 139.48 158.23C140.385 159.211 141.592 159.701 143.101 159.701ZM221.152 110.479C226.207 110.479 230.167 112.063 233.033 115.231C235.975 118.4 237.446 122.85 237.446 128.584V173.166H215.042V132.657C215.042 130.394 214.74 128.848 214.137 128.018C213.609 127.188 212.779 126.773 211.647 126.773C209.158 126.773 206.631 128.772 204.066 132.77V173.166H181.662V112.742H201.237L202.821 118.966C205.613 116.024 208.441 113.874 211.308 112.516C214.25 111.158 217.531 110.479 221.152 110.479ZM270.631 110.479C275.081 110.479 279.343 111.196 283.417 112.629C287.566 113.987 291.036 115.873 293.827 118.287L285.906 130.394C283.719 129.036 281.38 127.98 278.891 127.226C276.401 126.396 273.95 125.981 271.536 125.981C268.141 125.981 266.444 126.886 266.444 128.697C266.444 129.451 266.67 130.092 267.123 130.62C267.575 131.073 268.632 131.676 270.291 132.431C272.026 133.11 274.78 134.015 278.551 135.147C284.586 137.032 289.037 139.446 291.903 142.388C294.845 145.255 296.316 149.328 296.316 154.609C296.316 158.682 295.072 162.303 292.582 165.472C290.168 168.64 286.774 171.092 282.399 172.827C278.099 174.562 273.195 175.429 267.689 175.429C262.408 175.429 257.429 174.599 252.752 172.94C248.151 171.205 244.266 168.829 241.097 165.811L251.734 154.043C253.997 155.854 256.449 157.325 259.089 158.456C261.805 159.512 264.483 160.04 267.123 160.04C269.16 160.04 270.706 159.739 271.762 159.135C272.894 158.456 273.459 157.513 273.459 156.306C273.459 155.25 273.195 154.458 272.667 153.93C272.215 153.327 271.234 152.761 269.725 152.233C268.217 151.629 265.576 150.762 261.805 149.63C250.112 146.16 244.266 139.635 244.266 130.055C244.266 126.358 245.284 123.039 247.321 120.097C249.433 117.155 252.451 114.817 256.373 113.082C260.371 111.347 265.124 110.479 270.631 110.479Z" fill="black"/>
<circle cx="281.887" cy="20.7558" r="8.67511" stroke="black" stroke-width="1.50871"/>
<circle cx="312.818" cy="20.7558" r="8.67511" stroke="black" stroke-width="1.50871"/>
<line x1="308.397" y1="25.4238" x2="317.481" y2="16.3401" stroke="black" stroke-width="0.754357"/>
<line x1="308.931" y1="16.3401" x2="318.014" y2="25.4238" stroke="black" stroke-width="0.754357"/>
<path d="M1.5 38.8604L331.297 38.8604" stroke="black" stroke-width="0.754357"/>
<line x1="276.227" y1="20.7558" x2="287.542" y2="20.7558" stroke="black" stroke-width="0.754357"/>
</svg>
